<?xml version="1.0" standalone="no"?>
<!DOCTYPE svg PUBLIC "-//W3C//DTD SVG 20010904//EN"
 "http://www.w3.org/TR/2001/REC-SVG-20010904/DTD/svg10.dtd">
<svg version="1.0" xmlns="http://www.w3.org/2000/svg"
 width="1024.000000pt" height="1024.000000pt" viewBox="0 0 1024.000000 1024.000000"
 preserveAspectRatio="xMidYMid meet">

<g transform="translate(0.000000,1024.000000) scale(0.100000,-0.100000)"
fill="#000000" stroke="none">
<path d="M0 5120 l0 -5120 5120 0 5120 0 0 5120 0 5120 -5120 0 -5120 0 0
-5120z m5102 4763 c15 -14 18 -31 17 -122 0 -58 -4 -128 -7 -156 -7 -47 -9
-50 -38 -53 -57 -6 -64 12 -64 170 0 118 3 145 17 160 20 22 51 23 75 1z m449
-164 c28 -28 21 -53 -45 -159 -34 -55 -60 -86 -73 -88 -28 -4 -35 21 -20 66
26 74 92 201 105 202 6 0 21 -9 33 -21z m-904 -51 c23 -25 73 -141 73 -170 0
-41 -26 -17 -82 77 -48 79 -57 115 -31 115 11 0 29 -10 40 -22z m-138 -87 c71
-70 113 -128 124 -169 6 -25 -21 -62 -45 -62 -7 0 -59 48 -115 107 -107 113
-120 138 -86 175 27 30 51 21 122 -51z m1268 0 c7 -9 13 -23 13 -32 0 -19
-193 -209 -213 -209 -8 0 -25 8 -38 19 -20 16 -22 22 -12 44 15 33 139 165
177 188 30 18 53 15 73 -10z m-491 -189 c74 -26 228 -119 292 -177 58 -53 104
-128 136 -223 26 -75 24 -113 -6 -125 -9 -4 -9 -6 3 -6 20 -1 17 -61 -5 -77
-14 -10 -23 -44 -12 -44 2 0 11 -3 20 -6 9 -3 16 -1 16 5 0 6 -7 11 -15 11
-13 0 -13 2 -3 14 9 10 15 10 20 3 4 -6 10 -8 14 -4 4 3 2 12 -4 19 -6 8 -8
36 -5 68 3 30 6 63 6 73 1 20 9 21 57 7 19 -6 48 -13 65 -16 16 -3 35 -9 41
-15 7 -5 16 -9 20 -7 40 11 510 -146 522 -174 2 -4 12 -8 21 -8 19 0 193 -73
222 -94 10 -7 16 -16 12 -20 -4 -4 0 -4 8 -1 17 6 127 -48 224 -110 33 -21 54
-40 48 -42 -7 -3 -21 0 -31 6 -15 8 -23 7 -32 -4 -11 -13 -10 -14 3 -9 11 4
14 1 11 -13 -4 -14 0 -19 15 -19 23 0 28 12 9 19 -7 3 14 3 46 1 45 -4 77 1
130 20 39 13 100 32 136 41 36 9 106 29 155 45 50 16 213 63 363 105 150 42
303 88 340 101 36 14 129 43 207 64 160 43 364 103 445 130 63 21 332 90 352
90 10 0 13 -57 11 -292 -2 -161 -4 -670 -6 -1130 l-2 -838 25 0 c37 0 122 -43
168 -85 70 -62 87 -111 87 -245 0 -94 -4 -129 -24 -193 l-25 -78 23 -118 c57
-290 -9 -440 -240 -554 -53 -26 -104 -47 -113 -47 -9 0 -18 -6 -21 -12 -2 -7
-6 -148 -10 -313 -3 -165 -9 -311 -12 -325 -3 -14 -16 -38 -28 -55 -12 -16
-25 -38 -28 -47 -3 -10 -12 -15 -20 -12 -24 9 -162 -43 -161 -60 0 -9 1 -135
2 -281 l2 -265 43 1 c23 0 74 0 113 0 l71 0 6 -53 c8 -67 9 -885 1 -915 -8
-30 -85 -77 -169 -103 -38 -12 -87 -28 -107 -36 -20 -7 -91 -27 -158 -44 -144
-36 -205 -57 -238 -78 -27 -17 -32 -19 -102 -32 -47 -9 -194 -47 -220 -57 -8
-3 -18 -5 -22 -5 -5 1 -8 -3 -8 -9 0 -5 -5 -7 -10 -4 -6 4 -24 3 -42 0 -23 -5
-27 -9 -17 -16 9 -6 4 -7 -15 -3 -19 5 -27 3 -23 -4 4 -6 -5 -10 -26 -10 -63
0 -227 -49 -223 -66 2 -6 1 -8 -1 -3 -7 11 -43 9 -43 -3 0 -5 -5 -10 -11 -10
-5 0 -7 5 -3 11 4 7 -3 6 -17 -2 -13 -7 -31 -14 -39 -15 -83 -11 -105 -16
-115 -24 -6 -5 -20 -11 -31 -13 -42 -8 -74 -20 -74 -27 0 -4 -11 -6 -25 -5
-14 2 -23 -1 -19 -6 3 -5 -15 -9 -40 -9 -34 0 -46 -4 -46 -15 0 -8 -5 -15 -11
-15 -5 0 -7 5 -3 11 7 12 -32 3 -51 -11 -5 -4 -26 -11 -45 -16 -45 -10 -41 -9
-71 -21 -14 -6 -48 -15 -75 -19 -27 -3 -60 -11 -74 -17 -31 -12 -26 -11 -135
-37 -49 -11 -122 -30 -161 -42 -120 -35 -144 -23 -235 117 -23 36 -46 65 -50
65 -5 0 -9 -15 -8 -32 0 -48 -20 -177 -31 -199 -22 -39 -81 -68 -240 -117 -91
-28 -181 -54 -200 -57 -19 -4 -75 -19 -125 -35 -49 -16 -117 -36 -150 -45 -33
-9 -64 -20 -70 -24 -5 -4 -44 -18 -85 -30 -41 -13 -93 -30 -115 -38 -180 -69
-494 -145 -602 -147 -52 -1 -65 3 -88 24 -33 31 -68 98 -90 173 -18 64 -15 62
-115 46 l-69 -12 -14 -51 c-8 -28 -28 -105 -43 -170 l-29 -120 -55 -22 c-48
-20 -63 -25 -98 -34 -4 -1 -24 -11 -44 -21 -35 -18 -190 -62 -334 -94 -34 -8
-72 -18 -85 -24 -13 -5 -50 -14 -81 -21 -32 -6 -60 -16 -63 -21 -4 -5 -17 -9
-30 -9 -13 0 -34 -10 -46 -22 -17 -18 -21 -19 -16 -5 6 15 4 16 -13 7 -11 -6
-20 -9 -20 -6 0 3 -21 -1 -47 -9 -58 -18 -56 -18 -47 -3 5 7 2 9 -9 5 -9 -3
-43 -11 -77 -17 -34 -6 -128 -34 -208 -61 -217 -74 -439 -146 -502 -162 -92
-24 -401 -117 -635 -191 -182 -57 -309 -86 -379 -86 -111 0 -100 -115 -106
1129 l-5 1075 -93 13 c-117 15 -173 44 -268 138 -115 113 -113 108 -114 412
-1 142 -2 299 -2 348 -2 126 22 186 111 275 73 73 148 111 291 148 l75 19 7
84 c3 46 6 304 7 572 1 461 0 488 -16 483 -10 -3 -38 -10 -62 -16 -24 -6 -82
-27 -128 -46 -47 -19 -102 -34 -122 -34 -40 0 -66 21 -135 113 l-36 49 0 406
c0 252 4 421 11 445 8 30 20 43 62 67 29 16 77 37 107 45 30 9 102 31 160 49
197 64 405 125 493 147 101 25 99 22 176 177 83 168 219 372 390 587 103 130
410 441 556 564 265 222 626 440 980 589 165 70 268 104 420 141 205 50 203
50 221 36 16 -11 16 -14 -4 -30 -16 -14 -19 -23 -11 -37 5 -10 15 -18 21 -18
7 0 6 5 -2 15 -10 11 -9 18 4 30 18 18 21 45 6 45 -26 0 -6 19 22 22 30 3 33
7 44 53 24 108 83 195 184 272 159 119 269 154 470 150 107 -2 148 -8 196 -25z
m3059 -96 c20 -30 11 -72 -19 -88 -30 -17 -386 -23 -1203 -23 -651 1 -683 2
-702 19 -24 22 -27 54 -7 82 14 19 31 19 683 17 367 -2 758 1 868 6 364 14
362 14 380 -13z m-5400 -138 c9 -9 -74 -137 -214 -333 -137 -191 -395 -558
-470 -670 -103 -151 -193 -275 -200 -275 -8 0 -33 26 -45 47 -5 9 -2 11 8 7
10 -4 16 -1 16 8 0 18 -37 58 -52 58 -9 0 -9 -3 0 -12 7 -7 12 -16 12 -22 0
-5 -56 73 -125 175 -292 433 -362 534 -514 744 -132 181 -191 268 -191 279 0
9 1766 3 1775 -6z m5376 -188 c11 -18 4 -79 -11 -94 -8 -8 -276 -11 -908 -11
-963 0 -932 -2 -932 49 0 24 27 61 50 69 8 3 415 5 903 4 777 -2 889 -4 898
-17z m-6724 -1026 c-5 -5 -90 -16 -237 -29 -30 -3 -113 -1 -185 5 -112 9 -131
8 -141 -5 -7 -9 -30 -16 -60 -17 l-49 -1 55 -7 55 -7 -60 -3 -60 -4 80 -6 c65
-5 52 -6 -70 -7 -88 0 -136 3 -115 7 19 4 29 8 23 9 -7 0 -13 8 -13 16 0 11
-11 15 -43 15 -23 0 -57 4 -75 9 -20 6 -30 6 -26 0 3 -6 -16 -7 -50 -3 -53 6
-56 5 -56 -15 0 -16 -6 -21 -25 -21 -13 0 -28 -8 -34 -17 -8 -16 -11 -14 -22
10 -17 37 5 59 68 68 57 8 1048 11 1040 3z m59 -58 c-4 -16 -13 -26 -24 -26
-9 0 -13 3 -7 8 11 8 13 32 3 48 -12 18 4 26 20 10 9 -9 12 -24 8 -40z m-983
7 c-7 -2 -19 -2 -25 0 -7 3 -2 5 12 5 14 0 19 -2 13 -5z m13 -22 c-4 -5 0 -12
6 -14 7 -3 -3 -6 -22 -6 l-35 -1 25 14 c32 18 32 18 26 7z m-127 -28 c2 -2 -3
-3 -11 -3 -9 0 -19 7 -22 16 -6 15 -4 15 11 3 10 -7 20 -15 22 -16z m1085
-149 c20 -20 21 -68 1 -84 -22 -19 -386 -32 -780 -28 -187 2 -348 7 -357 12
-20 9 -24 56 -8 86 10 18 31 19 511 19 276 0 504 2 507 5 13 13 111 6 126 -10z
m-389 -283 c121 -4 204 -9 185 -10 -19 -2 -42 -4 -50 -5 -8 -2 -27 -3 -42 -4
-31 -2 -40 -31 -10 -33 15 -1 15 -2 -1 -6 -16 -4 -15 -7 8 -19 36 -18 234 -20
258 -1 17 11 19 48 4 63 -3 3 -24 6 -47 6 -22 0 -40 3 -40 9 0 15 94 10 118
-7 27 -19 30 -69 5 -82 -10 -5 -266 -12 -569 -15 -513 -6 -553 -5 -567 11 -28
32 -30 59 -5 76 39 27 55 19 25 -12 -23 -24 -25 -31 -14 -46 11 -15 26 -17
137 -11 69 3 156 5 193 5 44 0 74 5 82 14 9 9 32 12 67 10 32 -2 44 -1 30 4
-13 4 -22 12 -20 17 4 15 -38 18 -62 5 -15 -8 -25 -8 -34 -1 -7 6 -29 12 -47
12 -19 1 -81 2 -139 4 -129 2 -145 6 -60 15 87 9 326 9 595 1z m-730 -301
c-10 -11 -20 -18 -23 -15 -7 6 18 35 31 35 5 0 2 -9 -8 -20z m249 11 c-5 -4
-47 -5 -94 -1 l-85 7 94 1 c53 1 91 -2 85 -7z m551 -1 c-79 -6 -526 -1 -534 6
-2 2 135 3 305 2 176 -1 274 -4 229 -8z m301 -15 c10 -17 10 -26 -1 -52 l-14
-33 -442 0 c-243 0 -440 2 -438 4 2 3 177 7 389 10 212 3 397 8 413 12 15 3
27 13 27 20 0 8 11 14 28 15 l27 1 -30 8 -30 8 30 1 c18 1 26 4 19 11 -5 5
-47 11 -94 13 l-85 3 94 0 c82 -1 95 -3 107 -21z m-1119 -47 c-3 -8 -6 -5 -6
6 -1 11 2 17 5 13 3 -3 4 -12 1 -19z m178 -28 c-50 -11 -162 -13 -168 -2 -3 4
43 8 101 9 81 1 97 -1 67 -7z m8668 -2714 c9 -16 12 -316 15 -1221 5 -1302 0
-1553 -27 -1586 -14 -17 -21 -19 -43 -10 -15 5 -31 19 -37 29 -7 13 -11 484
-11 1403 -2 1381 -2 1383 19 1400 26 21 68 14 84 -15z m-388 -1756 c23 -24 29
-39 29 -77 0 -114 -57 -200 -169 -253 -74 -35 -159 -40 -257 -14 -35 8 -74 12
-92 9 -85 -18 -170 -101 -202 -197 -26 -78 -16 -237 18 -304 67 -128 206 -184
345 -138 57 19 128 83 154 139 25 55 25 125 -2 159 -30 38 -81 36 -120 -5 -33
-35 -35 -52 -14 -102 8 -20 15 -39 15 -42 0 -12 -77 -4 -97 10 -26 18 -38 78
-28 138 20 117 209 180 308 102 82 -66 106 -183 59 -288 -52 -116 -183 -208
-320 -225 -217 -26 -363 62 -431 259 -82 240 26 517 226 579 77 24 126 25 208
5 83 -20 112 -18 172 9 61 29 95 80 113 171 17 88 20 95 39 95 9 0 30 -13 46
-30z m-1620 0 c3 -5 1 -10 -4 -10 -6 0 -11 5 -11 10 0 6 2 10 4 10 3 0 8 -4
11 -10z m-165 -54 c0 -2 -8 -10 -17 -17 -16 -13 -17 -12 -4 4 13 16 21 21 21
13z m-137 -50 c-10 -13 -19 -23 -21 -21 -5 5 22 45 31 45 4 0 0 -11 -10 -24z
m57 14 c-8 -5 -19 -10 -25 -10 -5 0 -3 5 5 10 8 5 20 10 25 10 6 0 3 -5 -5
-10z m870 -172 c0 -14 -15 -16 -27 -3 -10 11 -9 13 7 12 11 -1 20 -5 20 -9z
m-275 -258 c3 -5 1 -10 -4 -10 -6 0 -11 5 -11 10 0 6 2 10 4 10 3 0 8 -4 11
-10z m-14 -63 c-10 -9 -11 -8 -5 6 3 10 9 15 12 12 3 -3 0 -11 -7 -18z m-41 3
c0 -5 -2 -10 -4 -10 -3 0 -8 5 -11 10 -3 6 -1 10 4 10 6 0 11 -4 11 -10z
m-235 -276 c-33 -30 -73 -64 -90 -75 -16 -12 -8 -1 19 23 27 23 62 58 79 76
17 17 35 32 41 32 6 0 -16 -25 -49 -56z m-128 -110 c-3 -3 -12 -4 -19 -1 -8 3
-5 6 6 6 11 1 17 -2 13 -5z m-2013 -99 c159 -76 269 -252 268 -430 -1 -186
-95 -334 -266 -423 -43 -22 -67 -27 -158 -30 -88 -3 -119 -1 -176 17 -210 63
-354 304 -312 521 37 193 184 332 390 370 76 15 196 2 254 -25z m-1837 -265
c21 -11 32 -20 25 -20 -6 0 -29 9 -49 20 -21 11 -32 20 -25 20 6 0 29 -9 49
-20z m4111 -43 c31 -20 45 -40 68 -98 18 -45 39 -80 57 -93 26 -19 29 -19 55
-4 15 9 42 36 60 59 84 111 141 148 223 149 41 0 51 -4 78 -35 17 -20 47 -67
66 -105 19 -38 44 -74 54 -80 34 -18 79 -12 94 13 8 12 29 48 48 80 45 77 93
110 170 115 101 7 137 -20 214 -165 32 -60 36 -74 26 -87 -24 -29 -71 -20
-105 21 -60 72 -117 123 -136 123 -19 0 -34 -16 -115 -128 -65 -90 -137 -127
-170 -88 -5 7 -32 21 -58 31 -52 18 -88 58 -133 147 -13 26 -28 50 -34 53 -25
16 -62 -7 -95 -60 -45 -70 -174 -205 -196 -205 -28 0 -49 11 -49 26 0 8 -4 14
-9 14 -5 0 -7 9 -4 19 3 13 -2 21 -16 26 -22 7 -104 110 -129 163 -18 36 -50
49 -80 33 -11 -6 -53 -54 -92 -106 -74 -99 -106 -128 -178 -165 -49 -26 -174
-47 -214 -37 -31 8 -70 46 -65 62 2 5 42 18 88 27 93 20 192 64 228 102 12 13
46 59 74 102 64 95 115 128 189 121 28 -2 63 -14 86 -30z m-3894 -57 c5 -5 7
-10 3 -10 -12 0 -77 29 -77 34 0 7 63 -13 74 -24z m2906 20 c-8 -5 -19 -10
-25 -10 -5 0 -3 5 5 10 8 5 20 10 25 10 6 0 3 -5 -5 -10z m-874 -217 c2 -13
12 -23 22 -23 42 -1 46 -14 28 -86 -35 -139 -123 -263 -256 -361 -127 -93
-229 -126 -385 -127 -202 0 -360 66 -485 202 -81 87 -156 216 -172 294 l-12
57 -45 7 c-25 3 -68 12 -96 20 -27 8 -36 12 -18 9 96 -13 213 -17 226 -6 11 9
16 3 26 -32 41 -136 188 -308 319 -370 130 -63 291 -72 429 -26 77 25 192 100
255 165 61 63 121 180 138 269 8 39 15 61 17 50 2 -11 6 -30 9 -42z m424 53
c0 -2 -9 -6 -20 -9 -11 -3 -18 -1 -14 4 5 9 34 13 34 5z m-1983 -32 c-3 -3
-12 -4 -19 -1 -8 3 -5 6 6 6 11 1 17 -2 13 -5z m78 -14 c27 -7 27 -8 5 -8 -14
0 -36 4 -50 8 -20 6 -21 8 -5 8 11 0 34 -4 50 -8z"/>
<path d="M4970 9304 c-140 -29 -310 -137 -380 -240 -77 -111 -137 -273 -124
-336 1 -10 -1 -18 -6 -18 -5 0 -4 -11 2 -25 8 -18 8 -32 1 -48 -8 -16 -8 -28
-1 -38 8 -11 9 -11 4 3 -3 10 0 20 7 24 7 4 9 4 5 0 -4 -5 -3 -19 2 -31 6 -16
5 -25 -3 -29 -7 -2 -4 -5 7 -5 14 -1 17 -7 14 -26 -3 -13 -2 -22 2 -20 4 2 17
-22 30 -53 12 -31 28 -66 35 -77 11 -19 9 -20 -27 -22 -33 -1 -39 1 -34 15 5
13 2 12 -10 -3 -14 -19 -14 -20 6 -23 13 -2 20 -9 16 -17 -2 -7 2 -16 10 -19
17 -7 19 -43 2 -48 -9 -3 -8 -10 5 -23 16 -15 20 -16 28 -4 7 9 7 4 3 -16 -4
-16 -11 -36 -17 -42 -6 -9 -6 -13 2 -13 6 0 11 5 11 10 0 21 30 9 36 -14 6
-26 30 -41 39 -25 4 5 -1 12 -9 15 -17 7 -21 29 -7 38 4 3 17 -1 27 -10 18
-14 18 -15 -6 -8 -23 6 -24 5 -6 -8 17 -13 17 -18 5 -44 -8 -16 -24 -30 -35
-32 -23 -3 -54 21 -54 41 0 8 3 7 9 -2 5 -7 14 -10 20 -7 14 9 15 46 1 46 -5
0 -7 -6 -4 -14 4 -10 0 -13 -13 -10 -22 6 -56 61 -46 76 3 6 1 8 -4 5 -18 -11
-23 -47 -7 -47 8 0 14 -7 14 -15 0 -8 5 -15 10 -15 6 0 10 -7 10 -15 0 -8 -4
-15 -10 -15 -5 0 -10 -5 -10 -10 0 -6 6 -10 13 -9 6 1 25 -4 41 -11 l28 -14
-26 -21 c-25 -20 -25 -21 -7 -37 12 -10 23 -13 32 -7 11 7 10 9 -3 9 -22 0
-23 7 -4 26 19 18 24 18 22 -3 0 -11 6 -18 16 -18 24 0 35 -15 12 -16 -11 0
-14 -3 -6 -6 16 -6 54 26 46 38 -3 5 -3 9 1 9 3 0 10 -10 15 -22 7 -18 9 -19
9 -5 1 9 6 17 12 17 5 0 7 5 3 11 -4 8 -9 7 -15 -2 -7 -11 -9 -10 -9 3 0 12
-5 15 -15 11 -9 -3 -15 -2 -14 3 4 24 -2 36 -16 30 -16 -6 -21 9 -5 19 5 3 15
-3 22 -14 10 -16 14 -17 22 -6 6 8 25 17 41 20 23 5 26 4 15 -4 -8 -6 -23 -11
-32 -11 -22 0 -24 -26 -2 -34 22 -8 24 -8 24 7 0 7 9 18 20 25 25 15 25 11 0
-18 -11 -12 -17 -27 -14 -32 4 -6 0 -14 -7 -19 -10 -7 -8 -8 8 -6 12 2 25 6
29 9 3 4 18 4 32 2 26 -5 26 -4 7 10 -13 9 -25 11 -37 5 -9 -5 -19 -5 -22 0
-8 12 4 20 20 14 9 -3 13 0 11 8 -2 8 -2 11 0 7 2 -4 12 -4 21 -1 13 4 14 3 4
-5 -11 -7 -11 -10 2 -15 10 -4 16 -1 16 8 0 8 4 15 10 15 5 0 7 -7 3 -15 -3
-10 -1 -15 7 -13 7 2 15 -3 17 -10 3 -6 -1 -10 -9 -9 -7 2 -10 2 -6 0 4 -2 5
-12 2 -21 -3 -9 3 -5 12 10 15 23 25 27 51 24 25 -2 33 1 33 13 0 13 2 13 9 2
5 -7 6 -23 4 -35 -4 -17 -3 -18 6 -6 9 13 11 12 11 -3 0 -10 4 -16 8 -13 5 3
9 -1 9 -8 0 -11 -4 -12 -17 -3 -19 11 -50 4 -50 -13 0 -6 4 -9 9 -6 5 3 9 -6
9 -20 0 -15 -4 -21 -8 -15 -5 9 -10 8 -20 -4 -11 -13 -10 -15 6 -12 11 1 25 6
32 10 6 5 12 4 12 -2 0 -5 9 -9 19 -8 14 1 17 5 11 12 -12 14 10 65 28 65 6 0
12 -5 12 -11 0 -14 42 0 58 20 11 14 12 13 3 -6 -16 -32 -13 -42 9 -36 11 3
20 1 20 -4 0 -5 9 -9 20 -10 11 -1 20 2 20 6 0 5 -9 11 -20 14 -11 3 -20 11
-19 19 0 10 2 10 6 1 8 -21 25 -14 18 7 -5 15 -3 18 9 14 9 -3 16 -1 16 5 0 6
-5 11 -11 11 -5 0 -7 5 -4 10 12 19 27 10 23 -14 -4 -19 1 -27 21 -36 16 -8
21 -14 13 -17 -7 -3 -22 3 -33 13 -18 16 -19 16 -19 0 0 -9 5 -14 10 -11 18
11 11 -17 -7 -31 -17 -13 -17 -13 1 -14 10 0 25 8 32 18 12 16 13 15 14 -7 0
-33 8 -23 15 19 8 44 15 51 15 16 0 -20 4 -27 14 -23 7 3 19 0 25 -6 8 -8 14
-8 23 1 9 9 9 12 0 12 -7 0 -12 4 -12 10 0 5 23 9 50 9 28 -1 50 -6 50 -10 0
-17 50 -9 70 11 11 11 22 15 25 10 4 -7 13 -6 26 0 11 6 23 9 27 6 4 -2 29 6
56 20 26 13 55 24 64 24 15 0 15 2 2 10 -11 7 -7 10 18 10 17 0 32 5 32 10 0
6 -9 10 -20 10 -18 0 -20 7 -20 60 0 41 4 60 13 61 6 1 1 5 -13 9 -24 8 -24 8
7 9 21 1 36 -5 42 -16 6 -10 10 -13 11 -8 0 6 -4 17 -10 25 -11 17 5 40 29 40
14 0 14 -2 1 -10 -8 -5 -10 -10 -5 -10 6 0 4 -4 -4 -9 -7 -5 -10 -14 -7 -20
10 -16 26 -3 26 21 0 15 5 19 18 14 14 -5 13 -3 -3 10 -11 8 -19 20 -17 26 2
8 -1 8 -11 0 -8 -7 -17 -9 -21 -5 -10 10 -87 10 -83 0 1 -5 7 -9 12 -9 6 -1
16 -8 23 -17 12 -14 13 -14 9 -1 -3 10 2 16 13 17 17 2 18 0 2 -18 -17 -19
-48 -27 -37 -9 11 17 -7 11 -21 -7 -13 -16 -14 -15 -10 9 3 15 0 30 -5 33 -17
11 -9 27 12 22 13 -3 19 -1 16 6 -3 7 -10 11 -16 10 -6 -2 -11 2 -11 8 0 7 9
9 21 6 17 -4 19 -3 10 6 -18 18 -13 29 9 17 16 -9 18 -15 10 -30 -6 -11 -7
-20 -2 -20 4 0 15 16 24 35 12 27 13 35 3 35 -8 0 -15 6 -18 13 -2 6 -8 9 -12
4 -5 -4 0 -14 11 -22 10 -8 14 -15 7 -15 -6 0 -15 5 -18 10 -10 15 -35 12 -35
-5 0 -8 -3 -15 -7 -15 -5 0 -8 18 -8 40 0 25 5 40 12 40 7 0 10 -6 7 -14 -3
-8 -1 -17 5 -21 6 -3 11 1 11 10 0 11 5 15 15 11 8 -3 15 -1 15 4 0 6 -7 10
-15 10 -9 0 -15 9 -15 23 0 18 2 19 11 7 9 -13 10 -13 6 0 -2 8 -12 14 -22 12
-14 -3 -16 1 -11 15 6 15 3 14 -13 -4 -12 -12 -21 -29 -21 -38 0 -8 -4 -15
-10 -15 -5 0 -10 -6 -10 -12 0 -19 -37 -64 -111 -138 -77 -76 -99 -94 -105
-88 -2 3 23 26 55 53 131 109 197 230 236 438 3 15 12 27 21 27 8 0 13 -4 9
-9 -6 -10 13 -26 21 -18 9 9 -19 45 -32 40 -8 -3 -14 15 -19 59 -31 291 -322
553 -610 547 -16 0 -59 -7 -95 -15z m238 -129 c200 -60 332 -240 332 -455 0
-135 -50 -251 -153 -354 -81 -81 -228 -132 -352 -123 -179 12 -307 108 -391
291 -101 221 -10 497 199 599 116 56 260 73 365 42z m452 -736 c0 -5 -4 -9
-10 -9 -5 0 -10 7 -10 16 0 8 5 12 10 9 6 -3 10 -10 10 -16z m-1064 -101 c5
-8 2 -9 -10 -5 -10 4 -26 2 -37 -3 -15 -8 -19 -7 -19 5 0 18 55 21 66 3z m43
-53 c17 -20 29 -40 26 -46 -4 -5 -1 -17 6 -25 6 -8 9 -17 5 -21 -3 -3 -6 -1
-6 6 0 8 -7 10 -20 6 -13 -4 -20 -2 -20 7 0 10 -3 9 -10 -2 -11 -17 -13 -9 -4
14 6 15 8 15 19 -1 11 -15 13 -14 13 11 0 20 -4 26 -15 22 -8 -3 -19 -6 -24
-6 -6 0 -9 -6 -8 -12 4 -33 -2 -47 -16 -42 -8 4 -15 10 -15 16 0 5 4 7 8 4 4
-2 8 4 8 15 0 10 -4 19 -9 19 -5 0 -4 7 3 15 10 12 16 13 26 4 11 -9 14 -8 14
2 0 28 -17 42 -44 35 -15 -4 -26 -2 -26 4 0 5 13 10 28 10 20 0 39 -11 61 -35z
m-65 -12 c-25 -27 -39 -27 -28 0 5 14 18 21 46 26 4 0 -4 -11 -18 -26z m1050
-28 c-4 -8 -10 -15 -15 -15 -4 0 -6 7 -3 15 4 8 10 15 15 15 4 0 6 -7 3 -15z
m-929 -15 c3 -5 2 -10 -4 -10 -5 0 -13 5 -16 10 -3 6 -2 10 4 10 5 0 13 -4 16
-10z m2 -52 c-3 -7 -5 -2 -5 12 0 14 2 19 5 13 2 -7 2 -19 0 -25z m30 17 c0
-8 -4 -15 -9 -15 -10 0 -11 14 -1 23 9 10 10 9 10 -8z m23 -13 c0 -5 -7 -17
-15 -28 -14 -18 -14 -17 -4 9 12 27 19 34 19 19z m24 -38 c3 -8 2 -12 -4 -9
-6 3 -10 10 -10 16 0 14 7 11 14 -7z m542 1 c-11 -8 -28 -15 -38 -15 -10 0
-21 -7 -24 -15 -5 -11 -9 -11 -19 -2 -10 9 -2 15 39 28 64 21 65 21 42 4z
m-602 -10 c3 -8 1 -15 -3 -15 -5 0 -11 7 -15 15 -3 8 -1 15 3 15 5 0 11 -7 15
-15z m101 -44 c-6 -5 -25 10 -25 20 0 5 6 4 14 -3 8 -7 12 -15 11 -17z m59 18
c5 7 13 8 25 1 10 -5 21 -7 24 -4 3 3 3 -5 0 -18 -4 -18 -3 -20 6 -8 9 13 11
13 11 -1 0 -11 -9 -16 -27 -16 -16 0 -22 2 -15 4 6 3 12 12 12 21 0 15 -2 15
-10 2 -6 -10 -10 -11 -10 -2 0 6 -5 12 -11 12 -6 0 -8 -9 -4 -21 5 -15 4 -19
-4 -15 -6 4 -11 14 -11 22 0 8 -4 12 -10 9 -6 -3 -7 1 -3 10 4 12 8 13 13 5 5
-9 9 -9 14 -1z m313 4 c-9 -2 -15 -9 -12 -14 3 -5 -1 -6 -10 -2 -13 5 -14 7
-3 14 7 5 20 8 28 8 11 -1 10 -3 -3 -6z m-229 -28 c-3 -3 -9 2 -12 12 -6 14
-5 15 5 6 7 -7 10 -15 7 -18z m203 -10 c5 4 6 -1 2 -10 -5 -13 -7 -14 -14 -3
-5 7 -8 18 -8 23 0 6 3 4 6 -3 2 -6 9 -10 14 -7z m-500 -5 c7 -28 5 -50 -4
-41 -5 5 -16 7 -23 4 -17 -6 -19 13 -3 23 8 4 7 9 -2 15 -10 6 -7 8 9 6 12 0
23 -4 23 -7z m329 6 c0 -3 -4 -8 -10 -11 -5 -3 -10 -1 -10 4 0 6 5 11 10 11 6
0 10 -2 10 -4z m110 0 c0 -2 -7 -6 -15 -10 -8 -3 -15 -1 -15 4 0 6 7 10 15 10
8 0 15 -2 15 -4z m167 -28 c-3 -7 -5 -2 -5 12 0 14 2 19 5 13 2 -7 2 -19 0
-25z m-222 -26 c-5 -5 -45 36 -45 46 0 3 11 -5 25 -18 14 -13 23 -26 20 -28z
m89 30 c16 -18 15 -19 -14 -20 -16 0 -30 3 -30 8 0 5 8 6 17 3 12 -5 15 -2 10
10 -8 22 -4 21 17 -1z m76 -8 c0 -8 5 -14 10 -14 6 0 10 8 10 18 0 14 2 15 10
2 6 -10 6 -16 0 -18 -6 -2 -10 -10 -10 -18 0 -27 -17 -14 -27 21 -6 19 -7 33
-2 29 5 -3 9 -12 9 -20z m-140 -34 c0 -5 -5 -10 -11 -10 -5 0 -7 5 -4 10 3 6
8 10 11 10 2 0 4 -4 4 -10z m207 -12 c2 -18 0 -20 -7 -8 -12 18 -13 30 -2 30
4 0 9 -10 9 -22z m-303 -38 c-6 -6 -10 -3 -10 10 0 13 4 16 10 10 7 -7 7 -13
0 -20z"/>
<path d="M5773 8877 c-37 -44 -40 -54 -18 -54 9 0 15 9 15 23 0 12 6 24 13 26
9 3 93 2 117 -1 2 -1 -1 -6 -8 -13 -14 -14 -16 -48 -3 -48 5 0 7 9 4 20 -6 22
7 26 24 9 8 -8 13 -8 17 0 4 6 0 11 -9 11 -11 0 -15 5 -11 15 7 20 -33 43 -44
25 -6 -9 -11 -7 -19 6 -9 13 -14 15 -17 7 -7 -17 -22 -16 -26 1 -2 8 -16 -3
-35 -27z"/>
<path d="M4460 8874 c0 -16 -2 -17 -10 -4 -8 12 -10 9 -10 -12 0 -39 16 -43
24 -6 3 17 4 33 1 36 -3 3 -5 -3 -5 -14z"/>
<path d="M5676 8882 c-9 -15 6 -52 22 -52 13 0 13 3 -2 19 -10 11 -15 25 -11
30 3 6 4 11 1 11 -3 0 -7 -4 -10 -8z"/>
<path d="M4413 8864 c-3 -8 -2 -19 3 -24 5 -5 9 1 9 16 0 28 -3 30 -12 8z"/>
<path d="M5930 8876 c0 -2 6 -16 14 -31 14 -26 15 -26 25 -7 15 28 14 32 -6
25 -11 -4 -14 -3 -9 5 4 7 1 12 -8 12 -9 0 -16 -2 -16 -4z"/>
<path d="M5793 8855 c-11 -12 -8 -25 8 -25 10 0 20 28 11 34 -4 2 -12 -2 -19
-9z"/>
<path d="M5992 8858 c-15 -15 -15 -28 -1 -28 5 0 7 5 3 12 -4 7 -3 8 4 4 7 -4
12 -14 12 -22 0 -19 10 -18 26 4 12 15 13 14 4 -10 -6 -18 -6 -28 0 -28 6 0
10 6 10 14 0 8 7 22 16 30 14 15 14 16 -5 18 -12 0 -27 1 -33 2 -7 1 -16 4
-19 8 -3 5 -10 3 -17 -4z"/>
<path d="M4376 8847 c3 -10 9 -15 12 -12 3 3 0 11 -7 18 -10 9 -11 8 -5 -6z"/>
<path d="M5855 8850 c-3 -5 -1 -10 4 -10 6 0 11 5 11 10 0 6 -2 10 -4 10 -3 0
-8 -4 -11 -10z"/>
<path d="M4180 8841 c0 -6 4 -13 10 -16 6 -3 7 1 4 9 -7 18 -14 21 -14 7z"/>
<path d="M4282 8830 c0 -14 2 -19 5 -12 2 6 2 18 0 25 -3 6 -5 1 -5 -13z"/>
<path d="M8896 8830 c-39 -10 -88 -26 -110 -34 -23 -8 -97 -31 -166 -51 -69
-20 -179 -52 -245 -72 -66 -20 -139 -40 -161 -46 l-41 -10 -7 -75 c-3 -41 -6
-209 -6 -372 l0 -297 -62 -22 c-82 -28 -84 -29 -80 -11 2 8 8 141 12 295 5
154 12 312 14 352 3 40 2 74 -3 77 -4 3 -86 -17 -182 -45 -297 -85 -421 -121
-507 -145 -45 -12 -128 -39 -184 -59 -56 -20 -194 -62 -307 -95 -113 -32 -341
-98 -506 -145 -165 -48 -392 -114 -505 -146 -241 -68 -400 -116 -565 -168
l-120 -37 -7 -115 c-4 -63 -9 -396 -10 -741 -2 -401 -7 -631 -13 -637 -5 -5
-28 -13 -51 -17 -37 -5 -42 -4 -47 17 -12 44 -19 1070 -9 1249 5 97 6 179 1
184 -12 14 -83 -4 -579 -145 -74 -21 -163 -43 -197 -50 -35 -6 -68 -18 -74
-25 -7 -8 -14 -57 -17 -109 l-5 -95 -31 0 c-17 0 -94 9 -171 20 -158 22 -269
25 -347 9 -107 -23 -500 -132 -748 -209 -342 -105 -616 -187 -725 -216 -49
-14 -115 -33 -145 -44 -86 -30 -493 -152 -730 -220 -118 -33 -243 -70 -277
-81 l-61 -20 -4 -397 c-2 -218 -1 -405 1 -415 5 -24 44 -20 206 21 66 16 145
34 175 40 30 6 65 14 76 17 l21 7 8 -386 c9 -451 -2 -996 -19 -1000 -42 -10
-225 -73 -264 -91 -131 -61 -202 -157 -202 -273 0 -35 6 -73 12 -85 7 -12 13
-45 14 -73 1 -60 19 -94 68 -126 l34 -22 -50 -39 c-54 -44 -72 -73 -83 -133
-13 -83 35 -173 114 -213 56 -29 229 -65 302 -64 l66 0 6 -396 c4 -218 6 -712
5 -1099 0 -424 3 -707 9 -713 5 -5 56 5 133 27 69 20 139 40 155 44 17 4 170
49 340 100 171 51 383 115 471 141 182 55 251 80 309 114 50 29 236 179 247
200 16 27 27 16 34 -32 11 -78 18 -86 72 -78 45 7 246 56 472 115 187 49 394
112 408 124 6 7 32 90 55 186 41 163 45 175 68 178 36 5 282 59 300 67 13 5
23 -15 54 -102 48 -137 71 -183 92 -183 28 0 470 125 758 215 149 46 326 101
395 121 188 54 305 93 326 108 17 13 19 34 25 188 6 171 16 224 42 215 7 -2
40 -43 74 -92 74 -107 158 -203 188 -217 24 -11 -8 -19 650 166 226 63 469
131 540 151 72 19 255 69 407 110 153 42 289 80 302 84 13 5 92 28 177 50 85
23 201 56 259 75 l105 35 3 408 2 409 -122 -23 c-134 -24 -193 -29 -183 -13 3
6 17 10 31 10 l24 0 1 328 c1 180 4 353 8 386 l6 58 110 44 c61 24 116 52 123
62 10 12 12 36 8 85 -6 61 11 617 18 625 2 1 36 12 77 23 169 47 272 126 304
232 31 105 10 185 -65 250 -63 53 -78 53 -238 -5 -63 -22 -207 -66 -321 -98
-234 -65 -503 -143 -701 -202 -74 -22 -211 -62 -305 -88 -185 -52 -274 -79
-495 -147 -80 -25 -215 -65 -300 -88 -85 -24 -209 -60 -275 -80 -66 -21 -160
-48 -210 -61 -49 -14 -117 -33 -150 -43 -33 -11 -73 -21 -89 -23 l-30 -3 3 65
c1 35 4 67 7 71 2 4 21 10 41 13 44 8 249 67 478 137 88 26 217 64 287 83 69
19 184 53 255 75 165 52 805 238 1138 331 55 15 152 43 215 63 294 90 430 124
529 131 91 8 101 10 101 29 0 7 20 29 44 49 58 49 86 108 86 182 0 69 -16 102
-74 153 -49 43 -101 63 -165 63 l-41 0 -2 748 c-2 411 -2 908 0 1105 l3 357
-23 -1 c-13 0 -54 -9 -92 -19z m-22 -607 c-4 -739 -6 -792 -22 -785 -12 4 -12
1 -2 -19 12 -22 12 -23 -3 -10 -10 7 -17 20 -17 27 0 8 -7 14 -15 14 -21 0
-19 20 3 21 16 1 16 2 -1 6 -11 3 -17 13 -16 31 1 33 -8 99 -16 112 -3 6 -2
10 3 10 6 0 6 17 1 43 -4 23 -7 225 -6 450 1 224 0 407 -2 407 -8 0 -276 -79
-316 -93 l-40 -14 -6 -336 c-7 -356 -11 -407 -34 -407 -8 0 -76 -20 -152 -45
-161 -53 -411 -118 -429 -111 -9 3 -11 90 -9 355 2 193 0 353 -4 355 -3 2 -60
-14 -126 -35 -66 -21 -145 -45 -176 -54 l-56 -15 -7 -428 c-4 -235 -9 -438
-10 -452 -2 -14 -7 -258 -11 -542 l-7 -516 23 -4 c17 -2 2 -10 -49 -26 -41
-13 -76 -21 -79 -18 -4 3 -8 317 -9 698 -2 381 -6 704 -9 717 -5 19 -11 22
-33 18 -40 -7 -374 -105 -380 -112 -3 -3 -9 -150 -14 -327 -7 -289 -10 -324
-27 -353 -10 -18 -22 -47 -26 -65 -5 -24 -10 -29 -19 -20 -8 8 -12 131 -14
428 l-3 417 98 28 c54 16 112 33 128 38 204 62 220 68 217 80 -9 32 -2 268 8
313 6 27 9 50 8 52 -2 2 -46 -10 -98 -26 -52 -15 -133 -39 -180 -53 -47 -13
-157 -45 -245 -71 -178 -52 -484 -142 -645 -188 -58 -17 -109 -34 -114 -39 -6
-5 -12 -75 -14 -155 -1 -81 -7 -166 -11 -190 -5 -24 -5 -44 -1 -44 4 0 27 7
51 15 98 35 409 108 418 99 3 -3 5 -26 5 -52 -3 -212 -5 -1460 -2 -1471 3 -13
-76 -48 -112 -50 -13 -1 -15 86 -12 734 l4 735 -24 -10 c-12 -5 -77 -26 -143
-46 -125 -37 -179 -63 -190 -91 -3 -10 -6 -147 -5 -306 l0 -288 -36 7 c-25 5
-35 3 -30 -4 3 -6 2 -13 -3 -16 -5 -3 -11 4 -14 17 -10 38 -7 400 3 442 5 22
12 53 16 69 7 31 -6 46 -42 46 -28 0 -36 23 -25 69 5 20 12 130 16 245 6 174
4 208 -7 199 -7 -5 -49 -16 -93 -23 -44 -7 -118 -25 -165 -40 l-85 -26 -6
-624 c-7 -750 -6 -739 -118 -862 -54 -59 -147 -112 -216 -122 -52 -8 -145 15
-195 48 -22 14 -50 45 -62 69 -20 39 -23 65 -35 372 -7 182 -12 463 -12 625 1
162 -3 296 -7 297 -12 3 -68 -12 -204 -54 -63 -20 -120 -37 -126 -39 -7 -1
-13 -198 -17 -651 -8 -699 -7 -708 45 -808 44 -85 151 -205 211 -236 21 -11
35 -24 32 -29 -3 -5 4 -11 15 -15 11 -3 20 -10 20 -15 0 -5 10 -11 23 -14 12
-2 -5 -2 -38 1 -217 19 -358 145 -416 371 -18 70 -19 114 -19 641 0 654 6 851
27 851 7 0 63 16 123 35 106 35 410 125 420 125 3 0 4 -118 2 -262 -1 -145 1
-437 5 -649 l8 -385 30 -59 c35 -69 77 -98 139 -97 90 1 165 55 210 151 21 45
21 54 19 732 l-2 687 42 15 c23 8 94 29 157 47 125 34 343 97 570 165 80 24
217 64 305 89 88 26 212 62 275 81 63 18 203 59 310 90 107 31 240 71 295 90
198 66 602 185 630 185 17 0 17 -23 13 -365 -3 -201 -2 -365 1 -365 7 1 150
41 304 85 l97 29 2 55 c0 31 0 199 -2 373 l-2 317 58 16 c33 9 95 28 139 42
98 32 366 111 380 112 8 1 10 -145 9 -466z m-40 -829 c3 -8 2 -12 -4 -9 -6 3
-10 10 -10 16 0 14 7 11 14 -7z m-429 -196 c3 -62 5 -252 3 -422 l-3 -308 -50
-19 c-27 -10 -51 -19 -52 -19 -2 0 -3 162 -3 359 0 198 -3 366 -6 374 -5 13
-15 12 -75 -5 -63 -17 -71 -18 -85 -4 -8 9 -19 16 -23 16 -4 0 -8 7 -8 15 0 8
7 15 16 15 19 0 104 34 191 77 36 17 70 32 77 32 7 1 13 -37 18 -111z m-280
-58 c4 -6 -6 -10 -22 -10 -22 0 -25 2 -13 10 19 12 27 12 35 0z m-4237 -26
c75 -17 110 -34 178 -85 67 -51 109 -113 144 -207 44 -121 54 -207 40 -320
-22 -177 -102 -346 -229 -484 l-63 -69 30 -47 c17 -26 56 -87 86 -137 30 -49
72 -113 93 -142 21 -29 53 -76 71 -106 18 -30 44 -65 57 -77 14 -13 25 -29 25
-35 0 -14 -44 -39 -58 -34 -6 2 -72 80 -147 174 -143 177 -265 358 -265 391 0
22 17 49 81 131 56 71 141 220 164 288 40 121 43 303 6 403 -45 121 -87 168
-196 219 -57 26 -68 28 -200 28 -138 0 -142 -1 -300 -48 -88 -27 -205 -61
-260 -76 -55 -15 -163 -48 -241 -72 l-141 -44 -6 -655 c-4 -360 -10 -802 -14
-981 l-6 -326 -50 -16 c-28 -9 -52 -15 -53 -14 -2 1 -5 471 -8 1045 l-6 1042
28 6 c15 3 131 37 257 76 312 96 606 177 685 187 79 11 213 5 298 -15z m4076
11 c4 -11 17 -14 53 -10 34 4 41 3 23 -3 -62 -21 -80 -23 -80 -7 0 8 -4 15
-10 15 -5 0 -10 5 -10 10 0 15 17 12 24 -5z m-90 -17 c-4 -6 2 -18 12 -26 12
-9 13 -13 4 -10 -11 4 -18 -8 -25 -46 -8 -43 -13 -51 -30 -48 -15 2 -17 1 -6
-6 16 -11 17 -83 2 -109 -7 -13 -9 -2 -6 42 3 44 2 52 -4 30 -6 -22 -9 -2 -10
72 l-1 102 28 4 c15 2 31 5 35 6 5 0 5 -4 1 -11z m290 -200 c-2 -46 -7 -185
-10 -310 l-6 -228 -42 -12 c-22 -6 -49 -18 -58 -26 -23 -19 -21 -45 -22 298
-1 157 -5 293 -10 303 -6 13 -4 17 10 17 11 0 42 9 69 20 28 10 55 19 61 20 8
0 11 -25 8 -82z m-5594 -210 c3 -73 5 -214 5 -313 l0 -180 -108 -22 c-104 -21
-316 -81 -328 -92 -4 -3 -9 -162 -13 -354 -3 -196 -10 -356 -16 -367 -6 -11
-14 -29 -20 -40 -5 -11 -10 -31 -10 -44 0 -14 -4 -28 -10 -31 -5 -3 -10 -21
-11 -38 l-1 -32 -10 35 c-5 19 -12 238 -15 486 l-5 451 68 25 c38 14 112 33
164 43 52 10 120 26 150 35 l55 17 0 41 c-1 23 -2 114 -3 202 l-2 160 -37 -14
c-43 -16 -293 -93 -423 -130 -47 -13 -146 -43 -220 -66 -74 -23 -184 -55 -245
-71 -60 -16 -165 -46 -232 -66 l-123 -36 0 -97 c0 -53 -3 -138 -6 -188 l-7
-91 79 20 c43 11 115 31 159 45 44 14 109 32 145 39 36 8 75 17 88 21 18 5 22
2 22 -18 0 -13 5 -29 12 -36 7 -7 8 -12 2 -12 -14 0 -14 -92 0 -109 8 -11 8
-13 -1 -7 -16 9 -15 17 -15 -194 1 -232 -9 -1176 -12 -1186 -4 -9 -91 -44
-110 -44 -3 0 -6 331 -6 736 0 699 -1 735 -18 730 -9 -3 -71 -17 -137 -31 -66
-14 -166 -39 -224 -56 -57 -16 -105 -28 -106 -27 -2 2 -1 136 2 299 l6 295 71
23 c39 12 177 54 306 92 129 38 312 92 405 120 389 118 720 215 725 213 4 -2
8 -63 10 -136z m5257 120 c-3 -8 -6 -5 -6 6 -1 11 2 17 5 13 3 -3 4 -12 1 -19z
m-4177 -200 c70 -36 90 -74 90 -173 0 -186 -80 -278 -304 -351 -106 -34 -293
-68 -308 -55 -4 4 -10 69 -13 146 -3 77 -8 181 -10 232 l-5 91 32 7 c18 4 93
29 166 56 195 72 280 83 352 47z m5472 -155 c22 -20 24 -80 2 -111 -24 -35
-56 -46 -259 -97 -104 -25 -237 -62 -295 -80 -58 -19 -172 -53 -255 -75 -181
-51 -252 -71 -505 -148 -107 -33 -256 -77 -330 -97 -74 -21 -218 -64 -320 -96
-102 -32 -221 -68 -265 -79 -147 -39 -418 -118 -685 -201 -52 -16 -103 -29
-112 -29 -20 0 -92 116 -84 136 2 6 31 20 63 29 32 9 110 32 173 52 63 19 214
64 335 98 121 34 317 92 435 128 118 36 289 87 380 112 91 25 338 97 550 160
212 62 467 137 568 165 100 28 242 71 315 95 159 52 160 52 221 54 33 1 55 -4
68 -16z m9 -564 c18 -18 20 -28 15 -63 -13 -83 -70 -112 -359 -186 -84 -21
-173 -45 -197 -53 -25 -9 -88 -27 -140 -41 -52 -14 -135 -39 -185 -56 -49 -17
-108 -35 -130 -40 -22 -5 -73 -18 -112 -30 -40 -11 -103 -29 -140 -40 -38 -11
-147 -44 -243 -75 -167 -52 -249 -68 -235 -44 4 6 13 8 21 5 9 -3 14 2 14 14
0 11 -7 20 -15 20 -8 0 -15 -5 -15 -11 0 -19 -27 -37 -61 -42 -30 -3 -29 -4
11 -6 36 -1 41 -4 27 -12 -9 -5 -21 -8 -26 -4 -5 3 -11 1 -13 -3 -1 -5 -15
-12 -30 -15 -20 -5 -28 -3 -31 10 -4 14 -5 14 -6 -3 0 -12 -9 -24 -18 -27 -10
-2 -89 -25 -175 -51 -87 -25 -166 -46 -176 -46 -10 0 -22 -4 -28 -8 -14 -12
-236 -81 -424 -132 -83 -22 -168 -47 -260 -76 -78 -24 -93 -20 -120 33 -23 47
-23 47 -4 82 12 23 35 44 64 58 58 29 100 39 100 24 0 -6 -7 -11 -15 -11 -8 0
-15 -4 -15 -10 0 -5 -11 -10 -23 -10 -13 0 -32 -9 -42 -20 -10 -11 -21 -17
-26 -15 -4 3 -10 1 -14 -5 -3 -5 -1 -10 4 -10 6 0 11 -9 11 -20 0 -17 7 -20
43 -20 32 0 49 -6 63 -21 l19 -21 -47 5 c-26 3 -52 8 -58 12 -6 4 -17 1 -25
-5 -11 -9 -12 -17 -4 -32 9 -17 17 -19 47 -13 21 4 41 11 46 16 6 5 20 9 31 9
12 0 25 3 29 8 8 8 11 8 54 12 21 2 23 3 7 7 -11 3 -23 10 -27 17 -6 8 -10 7
-17 -3 -5 -7 -13 -11 -19 -8 -14 9 -2 57 15 57 8 0 22 7 30 16 14 13 14 17 2
24 -7 5 -10 12 -6 17 5 4 12 1 17 -6 7 -12 11 -11 25 2 10 11 12 17 4 17 -6 0
-17 7 -23 15 -9 12 -18 13 -43 6 -20 -6 -33 -6 -33 0 0 5 12 12 28 15 15 4 61
17 102 30 222 69 446 136 530 158 96 24 353 99 400 116 31 11 238 68 265 73
11 2 27 7 35 10 49 22 442 135 486 140 16 2 40 9 54 15 44 18 440 139 600 182
85 23 180 51 210 61 105 35 142 37 171 8z m-5707 -191 c14 -18 48 -62 75 -98
49 -62 149 -209 218 -320 25 -39 28 -50 15 -45 -14 5 -15 4 -4 -6 16 -17 15
-29 -2 -29 -19 0 -26 -33 -11 -53 15 -21 53 -22 125 -3 84 22 71 11 -24 -20
-65 -21 -88 -25 -99 -16 -7 6 -47 59 -88 117 -41 59 -102 146 -136 195 -35 49
-84 112 -110 140 -48 50 -48 51 -94 44 -26 -3 -51 -9 -57 -13 -9 -6 -31 -232
-33 -346 -1 -45 -3 -54 -9 -35 -8 24 -8 24 -9 3 -1 -13 -5 -23 -11 -23 -5 0
-10 10 -11 23 0 13 -2 16 -6 7 -14 -43 -16 -44 -23 -15 -13 52 -10 226 5 330
8 55 15 103 15 106 0 3 20 16 45 28 25 12 45 27 45 32 0 6 4 8 8 5 5 -3 30 1
58 9 76 21 90 18 118 -17z m2186 27 c0 -13 -47 -45 -67 -45 -32 0 -29 18 5 25
15 4 34 10 42 15 18 11 20 11 20 5z m155 -229 c80 -36 135 -122 135 -209 0
-121 -83 -290 -164 -334 -18 -10 -18 -14 -6 -44 8 -18 45 -65 81 -104 44 -46
65 -75 60 -83 -4 -7 -60 -32 -123 -56 l-116 -43 -46 61 c-113 151 -116 153
-166 148 -25 -3 -47 -7 -50 -9 -3 -3 -5 -64 -5 -137 l0 -133 -55 -12 c-30 -7
-77 -25 -105 -40 -27 -14 -53 -27 -56 -29 -11 -5 -20 448 -13 687 l7 240 171
55 c94 31 189 60 211 66 63 15 181 3 240 -24z m2995 -320 l0 -313 -132 -46
c-171 -58 -243 -81 -348 -107 -47 -11 -114 -30 -150 -42 -36 -12 -111 -33
-168 -47 l-103 -26 -5 -93 c-4 -85 -3 -92 14 -92 11 0 109 25 218 56 206 59
380 103 402 104 10 0 12 -62 10 -292 l-3 -291 -90 -29 c-49 -16 -151 -44 -225
-63 -74 -19 -175 -47 -225 -63 l-90 -28 -3 -117 c-1 -64 -1 -117 2 -117 24 0
301 74 456 122 184 56 419 112 430 102 2 -3 6 -130 7 -284 l3 -278 -72 -17
c-40 -8 -113 -29 -163 -45 -49 -16 -182 -54 -295 -84 -191 -51 -263 -70 -655
-177 -82 -23 -196 -54 -251 -70 -56 -16 -104 -29 -105 -29 -3 0 -3 2163 0
2208 1 6 8 12 18 12 48 0 1388 404 1521 459 1 1 2 -140 2 -313z m-4032 94
c167 -22 254 -100 297 -267 20 -77 19 -145 -5 -237 -29 -114 -63 -169 -180
-287 -85 -86 -118 -113 -175 -139 -198 -94 -451 -12 -548 177 -24 46 -47 149
-47 213 0 75 23 159 68 244 80 152 253 272 427 295 83 12 81 12 163 1z m-2658
-210 c1 8 6 2 10 -14 10 -31 2 -116 -10 -116 -4 0 -7 -14 -7 -30 0 -17 -5 -36
-11 -42 -9 -9 -12 10 -12 79 0 50 3 106 7 124 7 33 7 33 14 9 4 -14 8 -18 9
-10z m47 -132 c-2 -13 -4 -3 -4 22 0 25 2 35 4 23 2 -13 2 -33 0 -45z m1809 3
c-3 -22 -14 -59 -25 -83 l-18 -43 -154 -48 c-85 -26 -215 -67 -289 -91 -185
-61 -380 -121 -470 -145 -41 -11 -136 -39 -210 -61 -74 -23 -180 -54 -235 -69
-107 -30 -244 -72 -420 -126 -60 -19 -150 -45 -200 -58 -49 -13 -171 -50 -270
-82 -99 -32 -216 -68 -260 -81 -44 -12 -115 -34 -158 -48 -43 -14 -86 -26 -96
-26 -22 0 -46 25 -60 63 -10 24 -7 32 24 66 47 51 72 63 282 122 222 62 733
216 913 274 74 24 221 67 325 95 282 77 582 165 740 217 132 44 544 160 574
162 10 1 12 -8 7 -38z m2729 -231 c132 -41 250 -126 324 -233 98 -143 136
-367 91 -541 -39 -153 -167 -370 -269 -458 -32 -27 -41 -41 -37 -56 13 -39
320 -461 400 -550 22 -24 35 -46 30 -51 -9 -7 -65 -24 -284 -87 -179 -50 -415
-114 -426 -114 -11 0 -89 101 -190 245 -27 39 -81 113 -121 167 l-72 96 -38
-19 c-20 -10 -44 -19 -51 -19 -13 0 -14 -44 -9 -295 4 -246 3 -298 -9 -310 -8
-7 -40 -21 -72 -30 -162 -45 -510 -149 -555 -165 -75 -27 -371 -116 -447 -135
-36 -9 -100 -27 -143 -42 -43 -14 -79 -23 -81 -22 -1 2 -24 71 -50 152 -40
125 -50 147 -65 142 -9 -3 -104 -25 -209 -50 -168 -39 -256 -66 -312 -94 -14
-7 -47 -125 -82 -286 l-13 -60 -70 -18 c-38 -10 -169 -48 -290 -84 -217 -65
-318 -92 -343 -93 -16 0 -13 15 58 240 32 102 76 246 98 320 22 74 59 196 81
270 22 74 76 259 120 410 44 151 107 363 140 470 113 372 160 525 174 565 l14
40 154 41 c191 51 445 125 522 152 l57 21 16 -37 c26 -61 152 -397 211 -562
30 -85 75 -211 100 -280 25 -69 76 -215 113 -325 86 -255 225 -633 238 -647 4
-4 8 457 9 1024 l1 1031 124 38 c68 20 173 51 233 69 61 17 196 60 300 96 290
98 321 105 450 100 75 -3 132 -11 180 -26z m-2788 -174 c-3 -7 -31 -18 -63
-25 -88 -20 -349 -97 -714 -210 -179 -56 -368 -112 -420 -126 -52 -13 -183
-52 -290 -85 -107 -34 -240 -74 -295 -90 -55 -16 -212 -63 -350 -105 -366
-112 -602 -170 -621 -154 -9 7 -13 21 -11 30 3 10 0 17 -5 16 -24 -5 -18 25
10 51 30 28 107 57 190 72 46 8 118 28 402 115 80 24 213 64 295 89 83 24 204
61 270 81 66 20 191 56 277 80 146 41 218 62 458 135 52 16 151 45 220 65 69
20 145 42 170 50 25 7 90 26 145 41 55 15 102 30 105 34 3 4 52 21 110 37
l105 30 8 -59 c5 -32 7 -65 4 -72z m108 -219 c-9 -31 -44 -59 -66 -52 -11 4
-19 2 -19 -4 0 -6 7 -11 15 -11 8 0 15 -4 15 -9 0 -6 -12 -9 -26 -8 -15 1 -28
-4 -30 -11 -1 -7 0 -8 3 -2 2 5 12 10 21 10 43 -1 -34 -39 -130 -65 -57 -15
-125 -35 -153 -44 -27 -10 -77 -23 -110 -30 -33 -7 -69 -17 -80 -21 -33 -14
-187 -59 -225 -66 -19 -4 -39 -10 -45 -14 -5 -4 -50 -20 -98 -35 -77 -25 -92
-27 -110 -15 -19 12 -20 11 -10 -2 14 -16 18 -14 -132 -58 -38 -12 -87 -26
-108 -32 -20 -6 -40 -8 -44 -5 -3 4 3 7 15 7 12 0 22 5 22 11 0 5 5 7 10 4 6
-3 10 -2 10 3 0 5 -21 8 -47 7 -64 -3 -63 -3 -63 -19 0 -8 -12 -17 -27 -19
-16 -2 -5 -3 22 -1 50 3 46 -10 -6 -19 -13 -2 -35 -9 -49 -15 -36 -15 -158
-53 -205 -62 -36 -7 -38 -7 -20 6 17 13 17 14 1 14 -10 0 -20 -9 -23 -20 -5
-19 -34 -32 -100 -45 -31 -6 -57 10 -31 20 10 4 12 25 10 80 -4 75 -8 82 -40
66 -31 -15 -88 -31 -114 -31 -15 0 -28 -4 -30 -9 -1 -5 -25 -12 -53 -15 -60
-7 -23 6 435 144 239 73 262 79 435 127 94 25 180 47 192 47 11 1 19 4 17 8
-7 10 43 21 61 14 8 -3 15 -1 15 3 0 8 82 41 102 41 20 0 -5 -20 -25 -21 -12
0 -16 -3 -9 -6 6 -2 12 -13 12 -24 0 -17 8 -19 60 -19 47 0 60 -3 60 -15 0 -9
-7 -18 -15 -21 -8 -3 -17 -14 -20 -25 -4 -10 -13 -19 -21 -19 -8 0 -14 -5 -14
-10 0 -12 49 -3 64 11 6 5 20 9 33 9 13 0 32 9 43 20 12 12 34 20 53 20 17 1
50 7 72 15 22 8 56 15 75 16 33 0 88 17 63 18 -28 2 -11 16 20 18 17 1 41 4
52 7 11 2 23 5 28 5 15 2 6 31 -10 32 -81 7 -137 4 -148 -8 -16 -15 -35 -17
-35 -3 0 6 5 10 10 10 6 0 10 9 10 19 0 23 71 52 78 32 2 -6 19 -11 39 -11 27
0 43 8 73 40 25 26 47 40 64 40 29 0 32 9 14 30 -11 12 -10 12 5 1 9 -8 21
-11 24 -7 4 4 1 11 -6 15 -18 11 -3 20 51 30 40 8 45 6 71 -21 20 -21 26 -35
22 -51z m-247 16 c-10 -2 -28 -2 -40 0 -13 2 -5 4 17 4 22 1 32 -1 23 -4z
m-64 -12 c3 -5 -18 -12 -46 -15 -29 -4 -58 -12 -66 -18 -9 -8 -16 -8 -23 -1
-7 7 8 15 48 25 73 19 81 20 87 9z m-217 -67 c-3 -3 -12 -4 -19 -1 -8 3 -5 6
6 6 11 1 17 -2 13 -5z m27 -29 c3 -8 1 -15 -4 -15 -6 0 -10 7 -10 15 0 8 2 15
4 15 2 0 6 -7 10 -15z m46 -5 c0 -5 -4 -10 -10 -10 -5 0 -10 5 -10 10 0 6 5
10 10 10 6 0 10 -4 10 -10z m-213 -6 c-3 -3 -12 -4 -19 -1 -8 3 -5 6 6 6 11 1
17 -2 13 -5z m171 -67 c2 -9 -3 -17 -10 -17 -8 0 -14 9 -14 20 0 24 20 21 24
-3z m-1663 -371 c-16 -7 -34 -11 -39 -8 -12 7 21 20 49 21 15 0 12 -3 -10 -13z
m-58 -12 c-3 -3 -12 -4 -19 -1 -8 3 -5 6 6 6 11 1 17 -2 13 -5z m-220 -69
c-36 -18 -106 -32 -92 -17 11 12 69 30 100 31 16 1 14 -2 -8 -14z m-144 -42
c-7 -2 -19 -2 -25 0 -7 3 -2 5 12 5 14 0 19 -2 13 -5z m-70 -10 c-7 -2 -19 -2
-25 0 -7 3 -2 5 12 5 14 0 19 -2 13 -5z m-53 -6 c0 -2 -20 -14 -45 -27 -25
-13 -61 -40 -79 -61 -27 -30 -33 -44 -31 -74 2 -40 19 -56 50 -50 60 12 99 15
85 6 -8 -5 -41 -12 -72 -16 -55 -7 -59 -6 -87 23 -56 55 -49 102 21 155 33 25
158 59 158 44z m1542 -26 c88 -23 174 -64 273 -131 89 -61 119 -93 193 -208
100 -156 142 -317 142 -545 0 -398 -229 -831 -566 -1073 -101 -72 -267 -150
-414 -193 -192 -56 -493 -144 -717 -211 l-193 -57 0 1076 0 1076 63 18 c166
45 324 91 557 160 140 42 280 82 310 90 83 23 260 21 352 -2z m-1307 -109 c-3
-3 -11 0 -18 7 -9 10 -8 11 6 5 10 -3 15 -9 12 -12z m-165 -42 c-8 -5 -22 -10
-30 -10 -13 0 -13 1 0 10 8 5 22 10 30 10 13 0 13 -1 0 -10z"/>
<path d="M3415 6506 c-27 -8 -81 -27 -120 -44 l-70 -31 -5 -133 c-3 -73 -4
-134 -3 -136 2 -6 277 69 304 83 91 48 131 188 70 249 -25 25 -107 30 -176 12z"/>
<path d="M8465 5730 c-30 -8 -30 -8 8 -9 20 0 37 4 37 9 0 11 -2 11 -45 0z"/>
<path d="M8195 5650 c-28 -7 -28 -8 -5 -9 14 0 32 4 40 9 17 11 8 11 -35 0z"/>
<path d="M8330 5550 c0 -5 7 -7 15 -4 8 4 15 8 15 10 0 2 -7 4 -15 4 -8 0 -15
-4 -15 -10z"/>
<path d="M7635 5490 c-17 -7 -15 -9 13 -9 17 -1 32 4 32 9 0 12 -17 12 -45 0z"/>
<path d="M7533 5456 c-14 -8 -19 -17 -13 -25 6 -11 10 -10 18 4 6 11 16 16 25
12 11 -4 14 -2 10 9 -6 16 -10 16 -40 0z"/>
<path d="M7420 5421 c-8 -6 -18 -7 -22 -5 -4 3 -8 1 -8 -4 0 -20 30 -21 40 -2
12 22 11 24 -10 11z"/>
<path d="M7340 5390 c0 -11 6 -23 13 -25 30 -10 50 -9 54 3 3 6 -2 12 -10 12
-8 0 -17 7 -21 15 -8 22 -36 18 -36 -5z"/>
<path d="M5371 5390 c-35 -11 -66 -22 -70 -26 -3 -4 1 -5 9 -2 8 2 22 -4 31
-15 13 -17 23 -19 61 -13 50 8 72 25 66 53 -4 24 -22 25 -97 3z"/>
<path d="M5442 5281 c-34 -10 -65 -21 -68 -24 -11 -11 -17 -194 -7 -200 14 -9
152 27 202 52 22 12 45 30 51 40 17 33 12 96 -11 125 -25 32 -72 34 -167 7z"/>
<path d="M5507 4833 c-10 -10 34 -54 46 -46 6 3 7 2 4 -4 -8 -13 48 -76 63
-71 7 2 1 14 -14 31 -14 15 -23 27 -20 27 3 0 -2 7 -10 16 -9 8 -16 24 -16 35
0 13 -7 19 -23 19 -13 0 -27 -3 -30 -7z"/>
<path d="M4497 5025 c-60 -23 -127 -76 -155 -125 -23 -38 -27 -57 -27 -125 0
-140 57 -204 181 -205 51 0 69 5 120 36 79 48 106 75 145 148 23 43 33 74 33
106 0 63 -37 127 -89 154 -50 26 -155 32 -208 11z"/>
<path d="M6259 4080 c-52 -9 -228 -68 -246 -82 -11 -9 -20 -298 -8 -298 20 0
293 73 314 85 67 34 111 110 111 189 0 95 -52 128 -171 106z"/>
<path d="M4325 3275 c-4 -17 -27 -99 -51 -183 -24 -84 -44 -163 -44 -176 l0
-23 118 30 119 30 -39 111 c-22 61 -52 140 -68 176 -28 63 -29 64 -35 35z"/>
<path d="M1335 3900 c-3 -5 -16 -10 -28 -11 -12 0 -16 -3 -9 -6 18 -7 62 5 62
17 0 13 -17 13 -25 0z"/>
<path d="M3560 4230 c0 -5 5 -10 10 -10 6 0 10 5 10 10 0 6 -4 10 -10 10 -5 0
-10 -4 -10 -10z"/>
<path d="M3090 4140 c-8 -5 -25 -10 -38 -10 -13 0 -21 -4 -17 -9 3 -5 -7 -11
-22 -13 l-27 -3 27 -14 c25 -13 29 -13 50 7 13 12 35 22 50 22 30 0 36 14 11
24 -19 7 -16 8 -34 -4z"/>
<path d="M3160 4090 c0 -5 9 -10 19 -10 11 0 22 -6 24 -12 4 -10 8 -9 16 2 8
11 6 17 -7 22 -26 10 -52 9 -52 -2z"/>
<path d="M2738 4043 c7 -3 16 -2 19 1 4 3 -2 6 -13 5 -11 0 -14 -3 -6 -6z"/>
<path d="M2770 3906 c0 -2 9 -6 20 -9 11 -3 18 -1 14 4 -5 9 -34 13 -34 5z"/>
<path d="M2230 3890 l-45 -7 48 -1 c26 -1 47 3 47 8 0 6 -1 9 -2 8 -2 0 -23
-4 -48 -8z"/>
<path d="M2365 2960 c-22 -5 -74 -19 -115 -32 -61 -19 -75 -28 -81 -48 -13
-45 -10 -890 2 -890 27 0 228 74 290 106 165 87 308 319 309 499 0 103 -23
180 -74 245 -80 101 -207 147 -331 120z"/>
<path d="M5824 8832 c3 -5 -4 -18 -14 -30 -21 -23 -25 -32 -12 -32 8 0 42 52
42 64 0 3 -5 6 -11 6 -5 0 -8 -4 -5 -8z"/>
<path d="M6077 8815 c-9 -13 -13 -26 -8 -30 5 -3 13 4 16 16 5 16 10 18 18 10
9 -9 9 -14 1 -19 -8 -5 -7 -11 4 -22 14 -13 15 -12 10 2 -4 8 -1 21 5 27 8 8
8 11 -1 11 -7 0 -11 5 -9 11 4 22 -18 18 -36 -6z"/>
<path d="M5850 8820 c0 -5 5 -10 10 -10 6 0 10 5 10 10 0 6 -4 10 -10 10 -5 0
-10 -4 -10 -10z"/>
<path d="M4146 8804 c-5 -14 -4 -15 9 -4 17 14 19 20 6 20 -5 0 -12 -7 -15
-16z"/>
<path d="M4355 8810 c-3 -5 0 -7 8 -4 9 3 17 -4 22 -18 6 -21 8 -21 12 -4 7
26 -28 48 -42 26z"/>
<path d="M4427 8809 c7 -7 15 -10 18 -7 3 3 -2 9 -12 12 -14 6 -15 5 -6 -5z"/>
<path d="M5758 8813 c-10 -2 -18 -9 -18 -14 0 -6 5 -7 10 -4 6 3 10 1 10 -4 0
-6 5 -11 11 -11 6 0 9 7 6 14 -4 10 -1 13 9 9 7 -3 14 0 14 6 0 11 -11 12 -42
4z"/>
<path d="M5910 8809 c0 -5 5 -7 10 -4 6 3 10 8 10 11 0 2 -4 4 -10 4 -5 0 -10
-5 -10 -11z"/>
<path d="M5977 8813 c-4 -3 -7 -13 -7 -22 1 -13 3 -13 11 2 11 19 8 33 -4 20z"/>
<path d="M6140 8809 c0 -5 5 -7 10 -4 6 3 10 8 10 11 0 2 -4 4 -10 4 -5 0 -10
-5 -10 -11z"/>
<path d="M4100 8800 c0 -5 5 -10 11 -10 5 0 7 5 4 10 -3 6 -8 10 -11 10 -2 0
-4 -4 -4 -10z"/>
<path d="M5937 8779 c4 -13 8 -18 11 -10 2 7 -1 18 -6 23 -8 8 -9 4 -5 -13z"/>
<path d="M4081 8774 c0 -11 3 -14 6 -6 3 7 2 16 -1 19 -3 4 -6 -2 -5 -13z"/>
<path d="M5861 8774 c0 -11 3 -14 6 -6 3 7 2 16 -1 19 -3 4 -6 -2 -5 -13z"/>
<path d="M6152 8769 c-12 -19 -11 -19 8 -9 11 6 20 15 20 20 0 17 -15 11 -28
-11z"/>
<path d="M5896 8764 c-11 -7 -18 -16 -15 -18 2 -2 13 2 23 10 11 7 18 16 15
18 -2 2 -13 -2 -23 -10z"/>
<path d="M6215 8770 c-4 -6 -11 -7 -17 -4 -7 4 -8 2 -4 -4 10 -16 23 -15 30 3
6 17 0 20 -9 5z"/>
<path d="M6250 8760 c-6 -11 -7 -20 -2 -20 6 0 12 9 15 20 3 11 3 20 1 20 -2
0 -8 -9 -14 -20z"/>
<path d="M3960 8751 c0 -25 6 -27 13 -6 4 8 2 17 -3 20 -6 4 -10 -3 -10 -14z"/>
<path d="M5827 8763 c-11 -10 -8 -43 3 -43 5 0 7 7 4 15 -4 8 -1 15 5 15 6 0
11 5 11 10 0 11 -13 13 -23 3z"/>
<path d="M5754 8738 c-4 -13 -12 -27 -18 -31 -7 -5 -3 -7 9 -5 15 2 20 -2 19
-19 -1 -29 13 -30 22 -1 4 13 2 24 -5 26 -6 2 -8 9 -5 14 5 7 2 8 -6 3 -9 -5
-10 -2 -5 14 3 11 4 21 1 21 -2 0 -8 -10 -12 -22z"/>
<path d="M6045 8750 c3 -5 8 -10 11 -10 2 0 4 5 4 10 0 6 -5 10 -11 10 -5 0
-7 -4 -4 -10z"/>
<path d="M5980 8739 c0 -5 5 -7 10 -4 6 3 10 8 10 11 0 2 -4 4 -10 4 -5 0 -10
-5 -10 -11z"/>
<path d="M6276 8731 c-4 -7 -5 -15 -2 -18 9 -9 19 4 14 18 -4 11 -6 11 -12 0z"/>
<path d="M6341 8724 c0 -11 3 -14 6 -6 3 7 2 16 -1 19 -3 4 -6 -2 -5 -13z"/>
<path d="M4410 8726 c0 -2 9 -6 20 -9 11 -3 20 -1 20 4 0 5 -9 9 -20 9 -11 0
-20 -2 -20 -4z"/>
<path d="M5853 8715 c-7 -7 -18 -15 -25 -18 -7 -2 -11 -7 -8 -10 3 -3 16 3 30
13 14 10 23 21 20 23 -3 3 -10 -1 -17 -8z"/>
<path d="M5957 8711 c-4 -17 -3 -21 5 -13 5 5 8 16 6 23 -3 8 -7 3 -11 -10z"/>
<path d="M6226 8722 c-3 -5 1 -9 9 -9 8 0 12 4 9 9 -3 4 -7 8 -9 8 -2 0 -6 -4
-9 -8z"/>
<path d="M4210 8701 c0 -6 4 -13 10 -16 6 -3 7 1 4 9 -7 18 -14 21 -14 7z"/>
<path d="M5880 8700 c0 -5 5 -10 10 -10 6 0 10 5 10 10 0 6 -4 10 -10 10 -5 0
-10 -4 -10 -10z"/>
<path d="M6166 8695 c4 -8 8 -15 10 -15 2 0 4 7 4 15 0 8 -4 15 -10 15 -5 0
-7 -7 -4 -15z"/>
<path d="M3796 8685 c4 -8 8 -15 10 -15 2 0 4 7 4 15 0 8 -4 15 -10 15 -5 0
-7 -7 -4 -15z"/>
<path d="M4041 8684 c0 -11 3 -14 6 -6 3 7 2 16 -1 19 -3 4 -6 -2 -5 -13z"/>
<path d="M4435 8690 c3 -5 8 -10 11 -10 2 0 4 5 4 10 0 6 -5 10 -11 10 -5 0
-7 -4 -4 -10z"/>
<path d="M6015 8690 c-3 -5 -1 -10 4 -10 6 0 11 5 11 10 0 6 -2 10 -4 10 -3 0
-8 -4 -11 -10z"/>
<path d="M6196 8683 c-6 -14 -5 -15 5 -6 7 7 10 15 7 18 -3 3 -9 -2 -12 -12z"/>
<path d="M5850 8681 c0 -5 7 -12 16 -15 14 -5 15 -4 4 9 -14 17 -20 19 -20 6z"/>
<path d="M5732 8657 c-13 -15 -36 -69 -41 -94 -1 -5 -5 -2 -10 6 -7 11 -12 4
-20 -24 -6 -22 -9 -39 -8 -40 1 0 11 -7 21 -15 11 -8 17 -10 13 -4 -4 7 0 17
8 24 17 14 20 30 5 30 -5 0 -10 -6 -10 -14 0 -8 -4 -17 -9 -21 -16 -9 -8 39 9
52 11 9 17 9 23 0 4 -7 5 0 1 16 -5 20 -2 27 9 27 10 0 13 8 9 26 -3 16 -1 25
5 21 5 -3 10 0 10 8 0 18 -2 18 -15 2z"/>
<path d="M5800 8659 c0 -5 5 -7 10 -4 6 3 10 8 10 11 0 2 -4 4 -10 4 -5 0 -10
-5 -10 -11z"/>
<path d="M5935 8660 c3 -5 8 -10 11 -10 2 0 4 5 4 10 0 6 -5 10 -11 10 -5 0
-7 -4 -4 -10z"/>
<path d="M3640 8650 c0 -5 5 -10 11 -10 5 0 7 5 4 10 -3 6 -8 10 -11 10 -2 0
-4 -4 -4 -10z"/>
<path d="M5686 8644 c-13 -33 -6 -49 9 -20 18 33 18 36 6 36 -5 0 -12 -7 -15
-16z"/>
<path d="M5838 8625 c2 -14 6 -25 8 -25 2 0 4 11 4 25 0 14 -4 25 -9 25 -4 0
-6 -11 -3 -25z"/>
<path d="M5977 8639 c7 -7 15 -10 18 -7 3 3 -2 9 -12 12 -14 6 -15 5 -6 -5z"/>
<path d="M5757 8633 c-10 -10 -8 -33 2 -33 6 0 9 9 8 20 -1 23 -1 22 -10 13z"/>
<path d="M4320 8620 c-9 -6 -10 -10 -3 -10 6 0 15 5 18 10 8 12 4 12 -15 0z"/>
<path d="M4400 8625 c0 -5 5 -17 10 -25 5 -8 10 -10 10 -5 0 6 -5 17 -10 25
-5 8 -10 11 -10 5z"/>
<path d="M6190 8620 c0 -5 5 -10 10 -10 6 0 10 5 10 10 0 6 -4 10 -10 10 -5 0
-10 -4 -10 -10z"/>
<path d="M6233 8608 c-2 -16 1 -18 10 -9 7 7 8 14 1 21 -6 6 -10 2 -11 -12z"/>
<path d="M3560 8616 c0 -2 8 -10 18 -17 15 -13 16 -12 3 4 -13 16 -21 21 -21
13z"/>
<path d="M6470 8605 c-11 -13 -10 -14 4 -9 9 3 16 10 16 15 0 13 -6 11 -20 -6z"/>
<path d="M6575 8610 c-3 -5 -1 -10 4 -10 6 0 11 5 11 10 0 6 -2 10 -4 10 -3 0
-8 -4 -11 -10z"/>
<path d="M6654 8605 c-9 -21 -2 -26 13 -10 8 9 9 16 3 20 -6 3 -13 -1 -16 -10z"/>
<path d="M3525 8599 c-4 -6 -4 -13 -1 -16 3 -4 6 -1 6 6 0 7 5 9 12 5 7 -4 8
-3 4 4 -9 15 -13 15 -21 1z"/>
<path d="M3772 8590 c13 -20 28 -27 28 -12 0 4 -9 13 -20 20 -19 12 -20 11 -8
-8z"/>
<path d="M4430 8604 c0 -6 7 -19 16 -30 14 -18 14 -18 3 6 -14 31 -19 36 -19
24z"/>
<path d="M5870 8606 c0 -2 7 -7 16 -10 8 -3 12 -2 9 4 -6 10 -25 14 -25 6z"/>
<path d="M5980 8600 c0 -5 5 -10 11 -10 5 0 7 5 4 10 -3 6 -8 10 -11 10 -2 0
-4 -4 -4 -10z"/>
<path d="M5806 8585 c4 -8 8 -15 10 -15 2 0 4 7 4 15 0 8 -4 15 -10 15 -5 0
-7 -7 -4 -15z"/>
<path d="M6270 8590 c-9 -6 -10 -10 -3 -10 6 0 15 5 18 10 8 12 4 12 -15 0z"/>
<path d="M6415 8589 c-4 -6 -5 -12 -2 -15 2 -3 7 2 10 11 7 17 1 20 -8 4z"/>
<path d="M5737 8571 c-4 -17 -3 -21 5 -13 5 5 8 16 6 23 -3 8 -7 3 -11 -10z"/>
<path d="M5773 8579 c3 -9 0 -22 -6 -28 -8 -8 -8 -11 0 -11 17 0 25 32 12 44
-9 8 -10 7 -6 -5z"/>
<path d="M5830 8571 c-13 -26 -13 -28 6 -28 10 0 14 7 11 19 -6 22 6 23 27 2
9 -8 16 -11 16 -5 0 9 -31 31 -44 31 -3 0 -10 -9 -16 -19z"/>
<path d="M6437 8573 c-10 -9 -9 -23 1 -23 5 0 9 7 9 15 0 17 -1 18 -10 8z"/>
<path d="M6580 8568 c13 -16 48 -17 54 -2 4 10 -1 11 -18 4 -14 -5 -28 -5 -35
1 -8 6 -8 5 -1 -3z"/>
<path d="M6685 8570 c-3 -5 -16 -10 -28 -11 -15 0 -17 -2 -7 -6 8 -3 17 -9 20
-14 3 -4 10 3 17 17 11 24 10 33 -2 14z"/>
<path d="M3455 8560 c3 -5 8 -10 11 -10 2 0 4 5 4 10 0 6 -5 10 -11 10 -5 0
-7 -4 -4 -10z"/>
<path d="M3580 8551 c0 -6 4 -13 10 -16 6 -3 7 1 4 9 -7 18 -14 21 -14 7z"/>
<path d="M3818 8553 c7 -3 16 -2 19 1 4 3 -2 6 -13 5 -11 0 -14 -3 -6 -6z"/>
<path d="M5913 8542 c9 -10 14 -22 10 -27 -5 -4 -3 -5 4 -1 15 8 7 32 -15 41
-14 5 -14 4 1 -13z"/>
<path d="M4450 8540 c-8 -5 -10 -10 -5 -10 6 0 17 5 25 10 8 5 11 10 5 10 -5
0 -17 -5 -25 -10z"/>
<path d="M5955 8540 c3 -5 11 -10 16 -10 6 0 7 5 4 10 -3 6 -11 10 -16 10 -6
0 -7 -4 -4 -10z"/>
<path d="M5732 8520 c-7 -11 -12 -25 -12 -32 0 -7 7 0 15 16 18 33 15 45 -3
16z"/>
<path d="M5795 8520 c-3 -5 -1 -10 4 -10 6 0 11 5 11 10 0 6 -2 10 -4 10 -3 0
-8 -4 -11 -10z"/>
<path d="M5894 8521 c4 -5 0 -11 -6 -14 -7 -2 -9 -8 -5 -13 4 -5 12 -2 17 6
13 20 12 30 -1 30 -5 0 -8 -4 -5 -9z"/>
<path d="M3825 8510 c-3 -5 -1 -10 4 -10 6 0 11 5 11 10 0 6 -2 10 -4 10 -3 0
-8 -4 -11 -10z"/>
<path d="M4140 8510 c0 -5 5 -10 11 -10 5 0 7 5 4 10 -3 6 -8 10 -11 10 -2 0
-4 -4 -4 -10z"/>
<path d="M4432 8506 c7 -8 15 -12 17 -11 5 6 -10 25 -20 25 -5 0 -4 -6 3 -14z"/>
<path d="M5830 8510 c-8 -5 -12 -11 -9 -14 3 -3 14 1 25 9 21 16 8 20 -16 5z"/>
<path d="M6205 8510 c-3 -5 -1 -10 4 -10 6 0 11 5 11 10 0 6 -2 10 -4 10 -3 0
-8 -4 -11 -10z"/>
<path d="M6240 8504 c0 -8 5 -12 10 -9 6 3 10 10 10 16 0 5 -4 9 -10 9 -5 0
-10 -7 -10 -16z"/>
<path d="M6286 8505 c-11 -8 -15 -15 -9 -15 6 0 16 7 23 15 16 19 11 19 -14 0z"/>
<path d="M6800 8516 c0 -2 9 -6 20 -9 11 -3 20 -1 20 4 0 5 -9 9 -20 9 -11 0
-20 -2 -20 -4z"/>
<path d="M5945 8500 c3 -5 8 -10 11 -10 2 0 4 5 4 10 0 6 -5 10 -11 10 -5 0
-7 -4 -4 -10z"/>
<path d="M5981 8494 c0 -11 3 -14 6 -6 3 7 2 16 -1 19 -3 4 -6 -2 -5 -13z"/>
<path d="M6465 8500 c-3 -6 1 -7 9 -4 18 7 21 14 7 14 -6 0 -13 -4 -16 -10z"/>
<path d="M4180 8490 c0 -5 5 -10 11 -10 5 0 7 5 4 10 -3 6 -8 10 -11 10 -2 0
-4 -4 -4 -10z"/>
<path d="M4480 8490 c0 -5 7 -10 16 -10 8 0 12 5 9 10 -3 6 -10 10 -16 10 -5
0 -9 -4 -9 -10z"/>
<path d="M5747 8487 c-3 -8 -1 -20 5 -28 8 -11 9 -10 4 5 -5 14 -2 17 10 12
14 -5 15 -4 4 9 -15 18 -17 18 -23 2z"/>
<path d="M5701 8474 c0 -11 3 -14 6 -6 3 7 2 16 -1 19 -3 4 -6 -2 -5 -13z"/>
<path d="M5906 8481 c-4 -6 -3 -11 3 -11 6 0 8 -8 5 -17 -5 -16 -4 -16 6 0 8
13 9 22 2 29 -6 6 -12 6 -16 -1z"/>
<path d="M4434 8472 c-7 -4 -8 -15 -3 -27 7 -19 8 -19 8 3 1 15 5 21 13 16 7
-4 8 -3 4 4 -8 14 -8 14 -22 4z"/>
<path d="M5842 8472 c-8 -6 -2 -9 18 -9 20 0 26 3 18 9 -7 4 -15 8 -18 8 -3 0
-11 -4 -18 -8z"/>
<path d="M5950 8470 c8 -5 20 -10 25 -10 6 0 3 5 -5 10 -8 5 -19 10 -25 10 -5
0 -3 -5 5 -10z"/>
<path d="M6007 8473 c-4 -3 -7 -11 -7 -17 0 -6 5 -5 12 2 6 6 9 14 7 17 -3 3
-9 2 -12 -2z"/>
<path d="M6226 8467 c3 -10 9 -15 12 -12 3 3 0 11 -7 18 -10 9 -11 8 -5 -6z"/>
<path d="M4346 8453 c-6 -14 -5 -15 5 -6 7 7 10 15 7 18 -3 3 -9 -2 -12 -12z"/>
<path d="M6116 8455 c-9 -26 -7 -32 5 -12 6 10 9 21 6 23 -2 3 -7 -2 -11 -11z"/>
<path d="M6437 8459 c7 -7 15 -10 18 -7 3 3 -2 9 -12 12 -14 6 -15 5 -6 -5z"/>
<path d="M3271 8444 c0 -11 3 -14 6 -6 3 7 2 16 -1 19 -3 4 -6 -2 -5 -13z"/>
<path d="M5775 8450 c-3 -5 -1 -10 4 -10 6 0 11 5 11 10 0 6 -2 10 -4 10 -3 0
-8 -4 -11 -10z"/>
<path d="M6025 8440 c-15 -17 -16 -20 -3 -20 9 0 19 7 22 16 10 25 1 27 -19 4z"/>
<path d="M6316 8443 c-6 -14 -5 -15 5 -6 7 7 10 15 7 18 -3 3 -9 -2 -12 -12z"/>
<path d="M4496 8440 c-13 -4 -16 -9 -8 -14 7 -4 19 -3 28 2 21 12 5 22 -20 12z"/>
<path d="M5816 8438 c3 -4 9 -8 15 -8 5 0 9 4 9 8 0 5 -7 9 -15 9 -8 0 -12 -4
-9 -9z"/>
<path d="M5885 8440 c3 -5 8 -10 11 -10 2 0 4 5 4 10 0 6 -5 10 -11 10 -5 0
-7 -4 -4 -10z"/>
<path d="M6880 8440 c0 -5 5 -10 10 -10 6 0 10 5 10 10 0 6 -4 10 -10 10 -5 0
-10 -4 -10 -10z"/>
<path d="M3975 8430 c-3 -6 1 -7 9 -4 18 7 21 14 7 14 -6 0 -13 -4 -16 -10z"/>
<path d="M5850 8430 c0 -5 5 -10 10 -10 6 0 10 5 10 10 0 6 -4 10 -10 10 -5 0
-10 -4 -10 -10z"/>
<path d="M5976 8425 c-3 -8 -1 -15 4 -15 6 0 10 7 10 15 0 8 -2 15 -4 15 -2 0
-6 -7 -10 -15z"/>
<path d="M6140 8431 c0 -5 7 -12 16 -15 14 -5 15 -4 4 9 -14 17 -20 19 -20 6z"/>
<path d="M6250 8431 c0 -6 4 -13 10 -16 6 -3 7 1 4 9 -7 18 -14 21 -14 7z"/>
<path d="M4200 8420 c0 -5 5 -10 11 -10 5 0 7 5 4 10 -3 6 -8 10 -11 10 -2 0
-4 -4 -4 -10z"/>
<path d="M5747 8423 c-11 -10 -8 -25 3 -18 6 4 17 1 25 -5 19 -16 19 -3 1 16
-16 16 -20 17 -29 7z"/>
<path d="M5800 8415 c7 -8 19 -15 26 -15 17 0 17 -8 0 -41 -11 -22 -11 -28 6
-49 10 -12 22 -19 26 -15 4 4 1 10 -6 12 -6 3 -10 9 -7 13 3 5 13 6 23 3 15
-6 15 -5 3 11 -11 13 -16 14 -22 4 -4 -7 -11 -9 -14 -6 -4 4 -3 13 1 20 5 7
10 23 12 36 2 16 -2 22 -18 22 -11 0 -20 5 -20 10 0 6 -5 10 -11 10 -8 0 -8
-5 1 -15z"/>
<path d="M5930 8421 c12 -8 12 -13 2 -23 -9 -9 -12 -9 -12 0 0 7 -5 12 -11 12
-5 0 -8 -4 -5 -8 3 -5 -1 -21 -9 -36 -13 -24 -13 -26 3 -24 9 2 16 -2 15 -9
-1 -6 4 -16 12 -23 11 -9 12 -7 8 9 -3 13 3 25 21 36 14 10 26 24 26 32 0 9
-7 6 -22 -10 -13 -13 -29 -22 -35 -20 -20 7 -15 20 8 26 24 6 23 38 -1 44 -13
4 -13 3 0 -6z"/>
<path d="M6286 8415 c4 -8 8 -15 10 -15 2 0 4 7 4 15 0 8 -4 15 -10 15 -5 0
-7 -7 -4 -15z"/>
<path d="M3190 8410 c0 -5 5 -10 10 -10 6 0 10 5 10 10 0 6 -4 10 -10 10 -5 0
-10 -4 -10 -10z"/>
<path d="M4240 8410 c0 -5 5 -10 11 -10 5 0 7 5 4 10 -3 6 -8 10 -11 10 -2 0
-4 -4 -4 -10z"/>
<path d="M4470 8411 c0 -5 5 -13 10 -16 6 -3 10 -2 10 4 0 5 -4 13 -10 16 -5
3 -10 2 -10 -4z"/>
<path d="M4516 8412 c-3 -5 1 -9 9 -9 8 0 12 4 9 9 -3 4 -7 8 -9 8 -2 0 -6 -4
-9 -8z"/>
<path d="M6220 8410 c0 -5 5 -10 11 -10 5 0 7 5 4 10 -3 6 -8 10 -11 10 -2 0
-4 -4 -4 -10z"/>
<path d="M6876 8403 c-4 -8 -13 -13 -20 -10 -8 3 -20 -1 -26 -9 -9 -10 -9 -14
-1 -14 6 0 11 5 11 10 0 7 7 7 21 -1 17 -9 20 -8 14 2 -6 9 -3 11 9 6 11 -5
15 -3 10 5 -5 8 -2 9 9 5 10 -3 17 -3 17 2 0 16 -39 19 -44 4z"/>
<path d="M3141 8394 c0 -11 3 -14 6 -6 3 7 2 16 -1 19 -3 4 -6 -2 -5 -13z"/>
<path d="M5710 8400 c0 -5 5 -10 10 -10 6 0 10 5 10 10 0 6 -4 10 -10 10 -5 0
-10 -4 -10 -10z"/>
<path d="M5870 8400 c0 -5 5 -10 10 -10 6 0 10 5 10 10 0 6 -4 10 -10 10 -5 0
-10 -4 -10 -10z"/>
<path d="M6040 8406 c0 -4 7 -14 15 -22 8 -9 15 -11 15 -6 0 5 -7 15 -15 22
-8 7 -15 9 -15 6z"/>
<path d="M6125 8400 c3 -5 16 -10 28 -9 21 0 21 1 2 9 -28 12 -37 12 -30 0z"/>
<path d="M6191 8401 c-7 -5 -11 -15 -9 -22 3 -10 8 -7 17 9 13 24 12 26 -8 13z"/>
<path d="M6317 8391 c-4 -17 -3 -21 5 -13 5 5 8 16 6 23 -3 8 -7 3 -11 -10z"/>
<path d="M3980 8385 c7 -9 15 -13 17 -11 7 7 -7 26 -19 26 -6 0 -6 -6 2 -15z"/>
<path d="M6250 8390 c0 -5 5 -10 10 -10 6 0 10 5 10 10 0 6 -4 10 -10 10 -5 0
-10 -4 -10 -10z"/>
<path d="M3260 8380 c0 -5 5 -10 11 -10 5 0 7 5 4 10 -3 6 -8 10 -11 10 -2 0
-4 -4 -4 -10z"/>
<path d="M4016 8382 c-2 -4 -1 -14 5 -22 7 -12 9 -10 9 8 0 23 -5 28 -14 14z"/>
<path d="M4520 8380 c0 -5 7 -7 15 -4 8 4 15 8 15 10 0 2 -7 4 -15 4 -8 0 -15
-4 -15 -10z"/>
<path d="M5740 8380 c0 -5 4 -10 9 -10 5 0 17 -7 26 -16 24 -24 28 -11 5 14
-22 23 -40 29 -40 12z"/>
<path d="M5800 8381 c0 -5 5 -13 10 -16 6 -3 10 -2 10 4 0 5 -4 13 -10 16 -5
3 -10 2 -10 -4z"/>
<path d="M6085 8380 c3 -5 8 -10 11 -10 2 0 4 5 4 10 0 6 -5 10 -11 10 -5 0
-7 -4 -4 -10z"/>
<path d="M6280 8378 c0 -9 -5 -18 -12 -20 -7 -3 -8 -7 -3 -10 16 -9 34 17 24
33 -7 11 -9 11 -9 -3z"/>
<path d="M5860 8370 c0 -5 5 -10 10 -10 6 0 10 5 10 10 0 6 -4 10 -10 10 -5 0
-10 -4 -10 -10z"/>
<path d="M6115 8369 c-9 -14 -2 -20 14 -10 8 6 9 11 3 15 -6 3 -14 1 -17 -5z"/>
<path d="M6215 8370 c3 -5 8 -10 11 -10 2 0 4 5 4 10 0 6 -5 10 -11 10 -5 0
-7 -4 -4 -10z"/>
<path d="M6340 8370 c0 -5 5 -10 10 -10 6 0 10 5 10 10 0 6 -4 10 -10 10 -5 0
-10 -4 -10 -10z"/>
<path d="M3085 8360 c3 -5 8 -10 11 -10 2 0 4 5 4 10 0 6 -5 10 -11 10 -5 0
-7 -4 -4 -10z"/>
<path d="M4095 8360 c-3 -5 -1 -10 4 -10 6 0 11 5 11 10 0 6 -2 10 -4 10 -3 0
-8 -4 -11 -10z"/>
<path d="M4295 8350 c3 -5 8 -10 11 -10 2 0 4 5 4 10 0 6 -5 10 -11 10 -5 0
-7 -4 -4 -10z"/>
<path d="M4440 8356 c0 -2 7 -9 15 -16 13 -11 14 -10 9 4 -5 14 -24 23 -24 12z"/>
<path d="M5734 8346 c-6 -7 -15 -22 -18 -34 -6 -18 -4 -20 20 -13 33 8 39 21
22 43 -10 13 -15 14 -24 4z m15 -27 c-16 -10 -23 -4 -14 10 3 6 11 8 17 5 6
-4 5 -9 -3 -15z"/>
<path d="M6049 8355 c-1 -5 -1 -13 0 -17 0 -5 -6 -8 -14 -8 -8 0 -15 5 -15 10
0 6 -5 10 -12 10 -9 0 -9 -3 0 -12 9 -9 9 -15 0 -26 -10 -11 -8 -13 7 -10 10
1 20 -2 22 -8 2 -6 -9 -10 -26 -10 -20 0 -31 5 -34 18 -4 12 0 18 11 18 15 0
15 2 2 10 -10 6 -16 6 -18 0 -2 -6 -8 -8 -13 -4 -5 3 -9 0 -9 -5 0 -6 4 -11 9
-11 5 0 11 -9 14 -20 6 -22 -18 -29 -26 -7 -2 6 -8 8 -13 4 -15 -14 20 -26 64
-22 38 3 42 2 37 -15 -3 -10 0 -22 6 -26 8 -4 9 -3 5 4 -4 7 -2 12 3 12 14 0
10 52 -4 63 -6 5 -4 12 7 20 11 9 14 18 7 28 -5 8 -9 10 -10 4z"/>
<path d="M6160 8351 c0 -7 -4 -10 -8 -7 -4 2 -14 1 -22 -5 -12 -7 -10 -9 7 -9
22 0 40 16 29 27 -3 4 -6 1 -6 -6z"/>
<path d="M3131 8334 c0 -11 3 -14 6 -6 3 7 2 16 -1 19 -3 4 -6 -2 -5 -13z"/>
<path d="M4040 8340 c0 -5 5 -10 10 -10 6 0 10 5 10 10 0 6 -4 10 -10 10 -5 0
-10 -4 -10 -10z"/>
<path d="M3033 8311 l0 -29 19 23 c10 13 18 27 18 32 0 4 -5 1 -10 -7 -8 -12
-12 -12 -18 -2 -6 8 -9 3 -9 -17z"/>
<path d="M4075 8330 c-3 -5 -1 -10 4 -10 6 0 11 5 11 10 0 6 -2 10 -4 10 -3 0
-8 -4 -11 -10z"/>
<path d="M4114 8328 c3 -10 1 -18 -4 -18 -6 0 -10 -9 -10 -19 0 -11 -6 -22
-12 -24 -10 -4 -10 -6 -1 -6 20 -1 44 52 31 70 -8 11 -9 11 -4 -3z"/>
<path d="M4466 8323 c-11 -3 -25 -10 -31 -17 -13 -12 -9 -36 6 -36 4 0 6 7 3
15 -5 13 3 18 26 17 3 0 11 6 18 14 13 14 11 15 -22 7z"/>
<path d="M4330 8310 c0 -5 5 -10 11 -10 5 0 7 5 4 10 -3 6 -8 10 -11 10 -2 0
-4 -4 -4 -10z"/>
<path d="M5780 8308 c0 -23 14 -35 48 -43 27 -6 32 -10 26 -27 -4 -15 -3 -18
6 -13 7 4 16 2 21 -6 4 -7 11 -10 15 -6 4 4 -1 14 -12 23 -18 14 -17 15 13 11
26 -3 30 -1 21 10 -6 7 -16 12 -22 11 -6 -1 -22 2 -36 7 -14 4 -34 8 -44 9
-11 1 -21 7 -24 14 -2 7 2 10 12 6 9 -3 16 -1 16 5 0 6 -9 11 -20 11 -11 0
-20 -6 -20 -12z"/>
<path d="M5880 8305 c-7 -9 -10 -18 -7 -21 3 -3 10 4 17 15 13 25 8 27 -10 6z"/>
<path d="M6068 8313 c7 -3 16 -2 19 1 4 3 -2 6 -13 5 -11 0 -14 -3 -6 -6z"/>
<path d="M6106 8301 c-10 -11 -22 -19 -25 -16 -4 2 -7 -5 -8 -15 -1 -11 2 -22
7 -25 4 -2 7 3 6 13 0 9 5 16 12 15 6 -2 12 4 12 12 0 8 3 15 6 15 9 0 36 -30
27 -30 -10 0 19 -20 30 -20 5 0 1 7 -7 16 -9 8 -14 20 -11 25 4 5 0 9 -9 9 -8
0 -16 5 -18 11 -2 6 -12 1 -22 -10z"/>
<path d="M2996 8295 c-3 -8 -12 -12 -21 -9 -11 5 -14 2 -9 -10 4 -9 11 -15 17
-13 15 5 41 47 29 47 -5 0 -12 -7 -16 -15z"/>
<path d="M3990 8298 c0 -4 4 -8 9 -8 6 0 12 4 15 8 3 5 -1 9 -9 9 -8 0 -15 -4
-15 -9z"/>
<path d="M4515 8299 c-4 -6 -5 -12 -2 -15 2 -3 7 2 10 11 7 17 1 20 -8 4z"/>
<path d="M6170 8299 c0 -5 5 -7 10 -4 6 3 10 8 10 11 0 2 -4 4 -10 4 -5 0 -10
-5 -10 -11z"/>
<path d="M6207 8303 c-4 -3 -7 -11 -7 -17 0 -6 5 -5 12 2 6 6 9 14 7 17 -3 3
-9 2 -12 -2z"/>
<path d="M3940 8291 c0 -6 -8 -11 -17 -12 -10 0 -13 -3 -6 -5 18 -8 49 11 34
20 -6 4 -11 2 -11 -3z"/>
<path d="M4075 8290 c-3 -5 -1 -10 4 -10 6 0 11 5 11 10 0 6 -2 10 -4 10 -3 0
-8 -4 -11 -10z"/>
<path d="M4300 8290 c0 -6 7 -10 15 -10 8 0 15 2 15 4 0 2 -7 6 -15 10 -8 3
-15 1 -15 -4z"/>
<path d="M4356 8284 c-8 -22 -4 -25 11 -9 7 8 9 16 4 19 -5 3 -12 -1 -15 -10z"/>
<path d="M6560 8290 c-9 -6 -10 -10 -3 -10 6 0 15 5 18 10 8 12 4 12 -15 0z"/>
<path d="M3866 8274 c-10 -25 1 -29 14 -5 6 12 7 21 1 21 -5 0 -12 -7 -15 -16z"/>
<path d="M4035 8280 c-3 -5 1 -10 10 -10 9 0 13 5 10 10 -3 6 -8 10 -10 10 -2
0 -7 -4 -10 -10z"/>
<path d="M4135 8280 c3 -5 8 -10 11 -10 2 0 4 5 4 10 0 6 -5 10 -11 10 -5 0
-7 -4 -4 -10z"/>
<path d="M3820 8271 c0 -6 4 -13 10 -16 6 -3 7 1 4 9 -7 18 -14 21 -14 7z"/>
<path d="M3976 8271 c-4 -7 -5 -15 -2 -18 9 -9 19 4 14 18 -4 11 -6 11 -12 0z"/>
<path d="M4400 8269 c0 -5 5 -7 10 -4 6 3 10 8 10 11 0 2 -4 4 -10 4 -5 0 -10
-5 -10 -11z"/>
<path d="M4460 8270 c0 -5 5 -10 10 -10 6 0 10 5 10 10 0 6 -4 10 -10 10 -5 0
-10 -4 -10 -10z"/>
<path d="M2917 8256 c-4 -10 -1 -13 8 -9 8 3 12 9 9 14 -7 12 -11 11 -17 -5z"/>
<path d="M3050 8261 c0 -6 4 -13 10 -16 6 -3 7 1 4 9 -7 18 -14 21 -14 7z"/>
<path d="M4006 8255 c-5 -15 11 -31 21 -21 4 3 0 6 -8 6 -12 0 -12 2 0 9 8 5
9 11 3 15 -5 3 -12 -1 -16 -9z"/>
<path d="M4280 8260 c0 -5 5 -10 11 -10 5 0 7 5 4 10 -3 6 -8 10 -11 10 -2 0
-4 -4 -4 -10z"/>
<path d="M2946 8244 c-8 -22 -4 -25 11 -9 7 8 9 16 4 19 -5 3 -12 -1 -15 -10z"/>
<path d="M4055 8250 c-3 -5 -1 -10 4 -10 6 0 11 5 11 10 0 6 -2 10 -4 10 -3 0
-8 -4 -11 -10z"/>
<path d="M4146 8245 c-3 -8 0 -17 6 -21 6 -4 8 -3 4 4 -3 5 -1 12 6 14 8 3 9
6 1 11 -6 4 -13 0 -17 -8z"/>
<path d="M4180 8256 c0 -2 8 -10 18 -17 15 -13 16 -12 3 4 -13 16 -21 21 -21
13z"/>
<path d="M4315 8249 c-4 -6 -5 -12 -2 -15 2 -3 7 2 10 11 7 17 1 20 -8 4z"/>
<path d="M4478 8240 c-9 -10 -14 -21 -11 -23 6 -6 43 24 43 35 0 13 -14 8 -32
-12z"/>
<path d="M6220 8250 c0 -5 5 -10 11 -10 5 0 7 5 4 10 -3 6 -8 10 -11 10 -2 0
-4 -4 -4 -10z"/>
<path d="M3945 8240 c3 -5 8 -10 11 -10 2 0 4 5 4 10 0 6 -5 10 -11 10 -5 0
-7 -4 -4 -10z"/>
<path d="M4380 8239 c0 -5 -4 -7 -10 -4 -5 3 -10 1 -10 -5 0 -6 10 -8 25 -4
15 4 25 2 25 -5 0 -6 -4 -11 -10 -11 -16 0 -58 -52 -53 -66 3 -8 2 -14 -2 -14
-11 0 -35 28 -35 42 0 10 -2 10 -9 -1 -5 -8 -15 -11 -23 -8 -8 3 -19 -3 -25
-12 -14 -23 16 -45 34 -26 7 7 9 16 6 19 -4 3 -3 6 2 6 15 0 46 -44 40 -57 -2
-8 -1 -12 4 -9 5 3 14 26 20 51 7 28 17 45 26 45 8 0 15 4 15 8 0 5 9 18 21
31 12 12 18 25 14 29 -3 3 -10 0 -14 -7 -6 -9 -11 -10 -15 -2 -9 14 -26 14
-26 0z m-100 -99 c0 -5 -4 -10 -10 -10 -5 0 -10 5 -10 10 0 6 5 10 10 10 6 0
10 -4 10 -10z"/>
<path d="M5810 8239 c0 -5 5 -7 10 -4 6 3 10 8 10 11 0 2 -4 4 -10 4 -5 0 -10
-5 -10 -11z"/>
<path d="M5956 8231 c4 -15 2 -21 -4 -17 -6 3 -13 2 -17 -3 -3 -6 5 -8 20 -5
14 2 25 0 25 -6 0 -6 5 -8 10 -5 14 8 13 25 -1 25 -7 0 -18 8 -26 18 -13 16
-13 15 -7 -7z"/>
<path d="M5980 8241 c0 -5 9 -7 20 -4 11 3 20 7 20 9 0 2 -9 4 -20 4 -11 0
-20 -4 -20 -9z"/>
<path d="M6126 8242 c-3 -5 1 -9 9 -9 8 0 15 4 15 9 0 4 -4 8 -9 8 -6 0 -12
-4 -15 -8z"/>
<path d="M6190 8241 c0 -6 4 -13 10 -16 6 -3 7 1 4 9 -7 18 -14 21 -14 7z"/>
<path d="M3001 8224 c0 -11 3 -14 6 -6 3 7 2 16 -1 19 -3 4 -6 -2 -5 -13z"/>
<path d="M3047 8219 c12 -12 24 -21 27 -18 2 2 -8 13 -22 23 l-27 19 22 -24z"/>
<path d="M3882 8228 c-7 -7 -12 -16 -12 -22 0 -5 6 -2 13 9 9 11 19 15 27 10
9 -5 11 -4 6 3 -9 15 -19 15 -34 0z"/>
<path d="M4110 8230 c0 -5 5 -10 11 -10 5 0 7 5 4 10 -3 6 -8 10 -11 10 -2 0
-4 -4 -4 -10z"/>
<path d="M2921 8214 c0 -11 3 -14 6 -6 3 7 2 16 -1 19 -3 4 -6 -2 -5 -13z"/>
<path d="M2971 8214 c0 -11 3 -14 6 -6 3 7 2 16 -1 19 -3 4 -6 -2 -5 -13z"/>
<path d="M3835 8219 c-4 -6 -5 -12 -2 -15 2 -3 7 2 10 11 7 17 1 20 -8 4z"/>
<path d="M4035 8219 c-11 -16 -1 -19 13 -3 7 8 8 14 3 14 -5 0 -13 -5 -16 -11z"/>
<path d="M4268 8222 c8 -5 10 -16 6 -28 -7 -18 -7 -18 13 -1 11 9 23 15 26 12
4 -3 4 -1 0 4 -5 5 -19 12 -33 16 -16 4 -20 3 -12 -3z"/>
<path d="M5790 8221 c0 -10 19 -25 25 -20 1 2 -3 10 -11 17 -8 7 -14 8 -14 3z"/>
<path d="M3970 8205 c0 -8 -7 -15 -15 -15 -17 0 -20 -25 -5 -35 6 -3 7 1 4 9
-4 11 0 16 10 16 9 0 16 2 16 4 0 2 3 11 6 20 3 9 1 16 -5 16 -6 0 -11 -7 -11
-15z"/>
<path d="M4080 8210 c0 -5 5 -10 10 -10 6 0 10 5 10 10 0 6 -4 10 -10 10 -5 0
-10 -4 -10 -10z"/>
<path d="M4335 8210 c-3 -5 -1 -10 4 -10 6 0 11 5 11 10 0 6 -2 10 -4 10 -3 0
-8 -4 -11 -10z"/>
<path d="M4441 8204 c0 -11 3 -14 6 -6 3 7 2 16 -1 19 -3 4 -6 -2 -5 -13z"/>
<path d="M2945 8200 c-3 -5 -1 -10 4 -10 6 0 11 5 11 10 0 6 -2 10 -4 10 -3 0
-8 -4 -11 -10z"/>
<path d="M3116 8197 c3 -10 9 -15 12 -12 3 3 0 11 -7 18 -10 9 -11 8 -5 -6z"/>
<path d="M3800 8199 c0 -5 5 -7 10 -4 6 3 10 8 10 11 0 2 -4 4 -10 4 -5 0 -10
-5 -10 -11z"/>
<path d="M3898 8196 c-10 -7 -15 -16 -12 -19 4 -3 13 1 21 9 20 19 13 26 -9
10z"/>
<path d="M4006 8195 c-9 -26 -7 -32 5 -12 6 10 9 21 6 23 -2 3 -7 -2 -11 -11z"/>
<path d="M5866 8185 c4 -8 12 -15 20 -15 7 0 18 -8 23 -17 6 -10 10 -13 11 -8
0 15 -12 28 -37 42 -19 11 -21 10 -17 -2z"/>
<path d="M6080 8187 c0 -8 -8 -18 -17 -20 -17 -4 -17 -5 0 -6 18 -1 35 25 23
36 -3 4 -6 -1 -6 -10z"/>
<path d="M6103 8176 c0 -18 3 -24 9 -18 7 7 7 16 0 28 -8 14 -9 13 -9 -10z"/>
<path d="M2853 8170 c-11 -16 -10 -18 1 -14 15 6 30 34 18 34 -4 0 -13 -9 -19
-20z"/>
<path d="M4060 8180 c0 -5 5 -10 11 -10 5 0 7 5 4 10 -3 6 -8 10 -11 10 -2 0
-4 -4 -4 -10z"/>
<path d="M4100 8175 c0 -8 4 -15 10 -15 5 0 7 7 4 15 -4 8 -8 15 -10 15 -2 0
-4 -7 -4 -15z"/>
<path d="M4320 8180 c0 -5 5 -10 10 -10 6 0 10 5 10 10 0 6 -4 10 -10 10 -5 0
-10 -4 -10 -10z"/>
<path d="M5760 8186 c0 -10 28 -13 41 -5 10 6 7 9 -13 9 -16 0 -28 -2 -28 -4z"/>
<path d="M5818 8172 c-11 -15 -11 -16 4 -4 13 10 17 10 20 0 3 -8 6 -9 11 -1
12 18 -21 23 -35 5z"/>
<path d="M5926 8177 c3 -10 9 -15 12 -12 3 3 0 11 -7 18 -10 9 -11 8 -5 -6z"/>
<path d="M5955 8179 c-9 -14 -2 -20 14 -10 8 6 9 11 3 15 -6 3 -14 1 -17 -5z"/>
<path d="M3595 8169 c-4 -6 -5 -12 -2 -15 2 -3 7 2 10 11 7 17 1 20 -8 4z"/>
<path d="M4230 8170 c0 -5 5 -10 11 -10 5 0 7 5 4 10 -3 6 -8 10 -11 10 -2 0
-4 -4 -4 -10z"/>
<path d="M4405 8161 c-4 -12 -12 -18 -21 -14 -10 4 -12 0 -8 -11 5 -14 9 -14
23 -4 29 23 41 48 22 48 -5 0 -12 -9 -16 -19z"/>
<path d="M4455 8171 c-3 -5 -1 -12 5 -16 5 -3 10 1 10 9 0 18 -6 21 -15 7z"/>
<path d="M5690 8150 c0 -16 5 -30 10 -30 6 0 10 14 10 30 0 17 -4 30 -10 30
-5 0 -10 -13 -10 -30z"/>
<path d="M5721 8164 c0 -11 3 -14 6 -6 3 7 2 16 -1 19 -3 4 -6 -2 -5 -13z"/>
<path d="M5740 8151 c0 -23 4 -29 15 -25 17 7 20 24 4 24 -5 0 -8 4 -4 9 3 5
1 12 -5 16 -6 4 -10 -6 -10 -24z"/>
<path d="M2976 8157 c3 -10 9 -15 12 -12 3 3 0 11 -7 18 -10 9 -11 8 -5 -6z"/>
<path d="M4020 8160 c0 -5 5 -10 10 -10 6 0 10 5 10 10 0 6 -4 10 -10 10 -5 0
-10 -4 -10 -10z"/>
<path d="M4146 8157 c3 -10 9 -15 12 -12 3 3 0 11 -7 18 -10 9 -11 8 -5 -6z"/>
<path d="M3635 8150 c3 -5 8 -10 11 -10 2 0 4 5 4 10 0 6 -5 10 -11 10 -5 0
-7 -4 -4 -10z"/>
<path d="M3810 8149 c0 -5 5 -7 10 -4 6 3 10 8 10 11 0 2 -4 4 -10 4 -5 0 -10
-5 -10 -11z"/>
<path d="M3978 8153 c7 -3 16 -2 19 1 4 3 -2 6 -13 5 -11 0 -14 -3 -6 -6z"/>
<path d="M4217 8139 c4 -13 8 -18 11 -10 2 7 -1 18 -6 23 -8 8 -9 4 -5 -13z"/>
<path d="M2875 8140 c-3 -5 -2 -10 4 -10 5 0 13 5 16 10 3 6 2 10 -4 10 -5 0
-13 -4 -16 -10z"/>
<path d="M2919 8133 c-13 -17 -13 -17 6 -3 11 8 22 16 24 17 2 2 0 3 -6 3 -6
0 -17 -8 -24 -17z"/>
<path d="M4040 8140 c-13 -8 -12 -10 3 -10 9 0 17 5 17 10 0 12 -1 12 -20 0z"/>
<path d="M4116 8135 c-3 -8 -1 -15 4 -15 6 0 10 7 10 15 0 8 -2 15 -4 15 -2 0
-6 -7 -10 -15z"/>
<path d="M4181 8134 c0 -11 3 -14 6 -6 3 7 2 16 -1 19 -3 4 -6 -2 -5 -13z"/>
<path d="M4435 8140 c3 -5 8 -10 11 -10 2 0 4 5 4 10 0 6 -5 10 -11 10 -5 0
-7 -4 -4 -10z"/>
<path d="M4475 8129 c-16 -10 -38 -16 -48 -13 -12 4 -22 -4 -35 -25 -10 -19
-23 -29 -31 -26 -20 8 -42 -15 -35 -37 3 -10 1 -25 -5 -31 -7 -9 -5 -13 8 -13
18 0 21 21 7 44 -8 14 0 32 15 32 6 0 7 -5 3 -11 -4 -8 0 -9 15 -4 25 8 29
-10 5 -23 -18 -10 -11 -32 11 -32 10 0 13 11 10 38 -3 39 16 79 34 68 5 -4 12
-2 16 4 9 14 25 2 25 -18 0 -9 -7 -30 -15 -47 l-15 -30 19 23 c11 12 22 22 25
22 4 0 5 -10 3 -22 -2 -13 -2 -17 0 -10 3 6 9 12 15 12 7 0 6 5 -1 14 -10 11
-8 16 5 24 17 9 17 11 -1 28 -17 17 -17 17 -11 -4 5 -14 3 -22 -4 -22 -6 0
-10 12 -8 28 2 15 8 26 16 25 6 -2 12 4 12 12 0 18 2 18 -35 -6z"/>
<path d="M2830 8136 c0 -4 7 -14 15 -22 8 -9 15 -11 15 -6 0 5 -7 15 -15 22
-8 7 -15 9 -15 6z"/>
<path d="M3492 8126 c7 -8 15 -12 17 -11 5 6 -10 25 -20 25 -5 0 -4 -6 3 -14z"/>
<path d="M3780 8130 c0 -5 5 -10 10 -10 6 0 10 5 10 10 0 6 -4 10 -10 10 -5 0
-10 -4 -10 -10z"/>
<path d="M3900 8130 c0 -5 5 -10 10 -10 6 0 10 5 10 10 0 6 -4 10 -10 10 -5 0
-10 -4 -10 -10z"/>
<path d="M5846 8132 c-3 -5 1 -9 9 -9 8 0 12 4 9 9 -3 4 -7 8 -9 8 -2 0 -6 -4
-9 -8z"/>
<path d="M6010 8129 c0 -5 5 -7 10 -4 6 3 10 8 10 11 0 2 -4 4 -10 4 -5 0 -10
-5 -10 -11z"/>
<path d="M3950 8120 c-13 -8 -12 -10 3 -10 9 0 17 5 17 10 0 12 -1 12 -20 0z"/>
<path d="M4600 8114 c0 -8 5 -12 10 -9 6 3 10 10 10 16 0 5 -4 9 -10 9 -5 0
-10 -7 -10 -16z"/>
<path d="M3755 8110 c-3 -5 1 -10 10 -10 9 0 13 5 10 10 -3 6 -8 10 -10 10 -2
0 -7 -4 -10 -10z"/>
<path d="M4058 8113 c-10 -2 -18 -8 -18 -13 0 -4 9 -6 20 -3 11 3 20 9 20 14
0 5 -1 8 -2 8 -2 -1 -11 -3 -20 -6z"/>
<path d="M4296 8111 c-4 -6 -2 -11 5 -11 7 0 9 -10 7 -25 -3 -13 -1 -22 3 -19
11 7 11 35 0 53 -6 9 -11 10 -15 2z"/>
<path d="M5775 8107 c-4 -10 -5 -21 -1 -24 10 -10 18 4 13 24 -4 17 -4 17 -12
0z"/>
<path d="M5822 8100 c0 -14 2 -19 5 -12 2 6 2 18 0 25 -3 6 -5 1 -5 -13z"/>
<path d="M2820 8102 c0 -5 7 -15 15 -22 8 -7 15 -9 15 -6 0 4 -7 14 -15 22 -8
9 -15 11 -15 6z"/>
<path d="M4137 8103 c-4 -3 -7 -11 -7 -17 0 -6 5 -5 12 2 6 6 9 14 7 17 -3 3
-9 2 -12 -2z"/>
<path d="M4251 8102 c-1 -7 6 -15 14 -18 10 -4 14 -14 10 -28 -5 -17 -4 -18 4
-6 15 21 13 40 -3 40 -8 0 -17 6 -19 13 -4 9 -6 9 -6 -1z"/>
<path d="M4367 8103 c-4 -3 -7 -11 -7 -17 0 -6 5 -5 12 2 6 6 9 14 7 17 -3 3
-9 2 -12 -2z"/>
<path d="M5720 8100 c0 -5 9 -10 20 -10 11 0 20 5 20 10 0 6 -9 10 -20 10 -11
0 -20 -4 -20 -10z"/>
<path d="M3910 8091 c0 -6 4 -13 10 -16 6 -3 7 1 4 9 -7 18 -14 21 -14 7z"/>
<path d="M3967 8074 c-11 -14 -16 -28 -13 -31 3 -4 6 -1 6 5 0 7 6 12 14 12 7
0 16 9 19 20 7 27 -4 25 -26 -6z"/>
<path d="M4090 8090 c0 -5 5 -10 10 -10 6 0 10 5 10 10 0 6 -4 10 -10 10 -5 0
-10 -4 -10 -10z"/>
<path d="M3720 8082 c0 -5 7 -9 15 -9 8 0 15 4 15 9 0 4 -7 8 -15 8 -8 0 -15
-4 -15 -8z"/>
<path d="M3780 8080 c-9 -6 -10 -10 -3 -10 6 0 15 5 18 10 8 12 4 12 -15 0z"/>
<path d="M4170 8080 c0 -5 5 -10 10 -10 6 0 10 5 10 10 0 6 -4 10 -10 10 -5 0
-10 -4 -10 -10z"/>
<path d="M4536 8078 c4 -6 0 -14 -7 -19 -7 -4 -10 -12 -5 -16 5 -4 11 -2 13 5
3 6 11 12 19 12 21 0 17 17 -6 23 -12 3 -18 1 -14 -5z"/>
<path d="M3813 8065 c0 -8 4 -15 9 -15 4 0 8 4 8 9 0 6 -4 12 -8 15 -5 3 -9
-1 -9 -9z"/>
<path d="M4056 8066 c3 -8 -2 -16 -13 -19 -12 -3 -13 -5 -3 -6 22 -1 44 15 36
28 -10 16 -26 14 -20 -3z"/>
<path d="M2755 8060 c-3 -5 -1 -10 4 -10 6 0 11 5 11 10 0 6 -2 10 -4 10 -3 0
-8 -4 -11 -10z"/>
<path d="M3885 8060 c-3 -5 -1 -10 4 -10 6 0 11 5 11 10 0 6 -2 10 -4 10 -3 0
-8 -4 -11 -10z"/>
<path d="M4115 8060 c3 -5 8 -10 11 -10 2 0 4 5 4 10 0 6 -5 10 -11 10 -5 0
-7 -4 -4 -10z"/>
<path d="M4210 8060 c0 -5 5 -10 10 -10 6 0 10 5 10 10 0 6 -4 10 -10 10 -5 0
-10 -4 -10 -10z"/>
<path d="M4420 8061 c0 -5 5 -13 10 -16 6 -3 10 -2 10 4 0 5 -4 13 -10 16 -5
3 -10 2 -10 -4z"/>
<path d="M3680 8050 c0 -5 5 -10 10 -10 6 0 10 5 10 10 0 6 -4 10 -10 10 -5 0
-10 -4 -10 -10z"/>
<path d="M3780 8050 c0 -5 5 -10 11 -10 5 0 7 5 4 10 -3 6 -8 10 -11 10 -2 0
-4 -4 -4 -10z"/>
<path d="M2665 8040 c3 -5 8 -10 11 -10 2 0 4 5 4 10 0 6 -5 10 -11 10 -5 0
-7 -4 -4 -10z"/>
<path d="M4180 8040 c0 -5 5 -10 10 -10 6 0 10 5 10 10 0 6 -4 10 -10 10 -5 0
-10 -4 -10 -10z"/>
<path d="M4230 8029 c0 -5 5 -7 10 -4 6 3 10 8 10 11 0 2 -4 4 -10 4 -5 0 -10
-5 -10 -11z"/>
<path d="M4285 8029 c-6 -8 -4 -10 5 -4 10 6 12 4 6 -11 -6 -15 -5 -17 5 -6 9
9 10 15 2 23 -8 8 -13 7 -18 -2z"/>
<path d="M4892 8029 c3 -9 2 -22 -3 -30 -7 -12 -9 -12 -9 1 0 9 -6 7 -16 -8
-9 -13 -13 -26 -10 -29 3 -3 8 1 11 9 7 16 45 13 45 -3 0 -5 5 -9 11 -9 5 0 7
5 4 10 -4 6 1 22 10 37 9 14 12 23 7 19 -6 -3 -13 0 -15 6 -4 10 -6 9 -6 -1
-1 -11 -4 -11 -18 0 -14 12 -16 12 -11 -2z m28 -24 c-7 -9 -15 -13 -19 -10 -3
3 1 10 9 15 21 14 24 12 10 -5z"/>
<path d="M3600 8019 c0 -5 5 -7 10 -4 6 3 10 8 10 11 0 2 -4 4 -10 4 -5 0 -10
-5 -10 -11z"/>
<path d="M3770 8020 c0 -5 5 -10 11 -10 5 0 7 5 4 10 -3 6 -8 10 -11 10 -2 0
-4 -4 -4 -10z"/>
<path d="M3806 8015 c4 -8 8 -15 10 -15 2 0 4 7 4 15 0 8 -4 15 -10 15 -5 0
-7 -7 -4 -15z"/>
<path d="M4417 8023 c-4 -3 -7 -11 -7 -17 0 -6 5 -5 12 2 6 6 9 14 7 17 -3 3
-9 2 -12 -2z"/>
<path d="M4512 8014 c-7 -8 -8 -14 -3 -14 10 0 25 19 20 25 -2 1 -10 -3 -17
-11z"/>
<path d="M2651 7999 c-7 -12 -10 -23 -8 -26 3 -3 11 5 17 17 15 28 8 35 -9 9z"/>
<path d="M2682 8000 c-7 -11 -8 -20 -3 -20 9 0 24 30 18 36 -1 2 -8 -6 -15
-16z"/>
<path d="M4195 8010 c-3 -6 1 -7 9 -4 18 7 21 14 7 14 -6 0 -13 -4 -16 -10z"/>
<path d="M4765 8009 c-4 -5 3 -9 14 -9 11 0 22 4 25 8 2 4 -4 8 -14 9 -11 1
-22 -2 -25 -8z"/>
<path d="M2716 7995 c-9 -26 -7 -32 5 -12 6 10 9 21 6 23 -2 3 -7 -2 -11 -11z"/>
<path d="M3558 7993 c7 -3 16 -2 19 1 4 3 -2 6 -13 5 -11 0 -14 -3 -6 -6z"/>
<path d="M4225 7990 c3 -5 8 -10 11 -10 2 0 4 5 4 10 0 6 -5 10 -11 10 -5 0
-7 -4 -4 -10z"/>
<path d="M4814 7980 c0 -13 4 -16 10 -10 7 7 7 13 0 20 -6 6 -10 3 -10 -10z"/>
<path d="M5023 7955 c0 -22 2 -30 4 -17 2 12 2 30 0 40 -3 9 -5 -1 -4 -23z"/>
<path d="M2582 7966 c4 -26 -52 -83 -63 -64 -6 9 -8 6 -6 -9 0 -12 6 -21 12
-20 5 1 9 -6 9 -15 -1 -10 2 -15 7 -12 5 3 9 14 9 25 0 11 9 30 20 42 18 18
22 20 30 7 8 -12 10 -11 10 5 -1 11 -8 29 -16 40 -15 19 -16 19 -12 1z"/>
<path d="M4270 7969 c0 -5 5 -7 10 -4 6 3 10 8 10 11 0 2 -4 4 -10 4 -5 0 -10
-5 -10 -11z"/>
<path d="M2621 7954 c0 -11 3 -14 6 -6 3 7 2 16 -1 19 -3 4 -6 -2 -5 -13z"/>
<path d="M2662 7954 c-7 -8 -10 -19 -6 -26 5 -7 10 -3 16 12 10 28 7 33 -10
14z"/>
<path d="M5330 7960 c0 -13 18 -22 24 -11 3 5 -1 11 -9 15 -8 3 -15 1 -15 -4z"/>
<path d="M5250 7930 c0 -5 5 -10 10 -10 6 0 10 5 10 10 0 6 -4 10 -10 10 -5 0
-10 -4 -10 -10z"/>
<path d="M2683 7913 c-3 -10 -7 -20 -9 -23 -1 -3 6 -6 17 -6 21 0 25 12 7 19
-10 4 -9 8 2 16 11 8 11 11 2 11 -7 0 -15 -8 -19 -17z"/>
<path d="M2641 7904 c0 -11 3 -14 6 -6 3 7 2 16 -1 19 -3 4 -6 -2 -5 -13z"/>
<path d="M2737 7899 c4 -13 8 -18 11 -10 2 7 -1 18 -6 23 -8 8 -9 4 -5 -13z"/>
<path d="M2573 7872 c1 -14 5 -18 11 -12 7 7 6 14 -1 21 -9 9 -12 7 -10 -9z"/>
<path d="M2489 7861 c6 -10 7 -22 3 -27 -4 -5 1 -2 10 5 15 11 15 15 3 27 -19
20 -28 17 -16 -5z"/>
<path d="M2604 7850 c0 -13 4 -16 10 -10 7 7 7 13 0 20 -6 6 -10 3 -10 -10z"/>
<path d="M2635 7861 c-3 -5 -1 -12 5 -16 5 -3 10 1 10 9 0 18 -6 21 -15 7z"/>
<path d="M2435 7830 c-3 -6 1 -7 9 -4 18 7 21 14 7 14 -6 0 -13 -4 -16 -10z"/>
<path d="M2465 7821 c-3 -6 0 -11 8 -11 8 0 18 -8 21 -17 6 -14 9 -15 16 -4 4
8 17 12 28 9 20 -6 40 17 27 30 -3 3 -5 0 -5 -7 0 -9 -8 -11 -25 -7 -16 4 -25
2 -25 -5 0 -7 -8 -5 -19 5 -12 11 -21 14 -26 7z"/>
<path d="M2416 7796 c3 -8 1 -17 -5 -21 -6 -3 -11 1 -11 10 0 9 -5 13 -10 10
-6 -3 -7 -18 -3 -33 4 -15 6 -35 5 -46 -1 -21 1 -20 18 13 8 15 8 21 1 17 -6
-4 -11 -4 -11 0 0 10 48 53 54 48 3 -2 4 -1 1 3 -3 4 -14 8 -25 10 -13 2 -18
-2 -14 -11z"/>
<path d="M2460 7769 c0 -5 5 -7 10 -4 6 3 10 8 10 11 0 2 -4 4 -10 4 -5 0 -10
-5 -10 -11z"/>
<path d="M2357 7756 c-4 -10 -1 -13 9 -9 15 6 19 23 5 23 -5 0 -11 -7 -14 -14z"/>
<path d="M2520 7760 c0 -5 7 -10 15 -10 8 0 15 -5 15 -12 0 -6 3 -8 6 -5 8 8
-14 37 -27 37 -5 0 -9 -4 -9 -10z"/>
<path d="M2485 7740 c3 -5 8 -10 11 -10 2 0 4 5 4 10 0 6 -5 10 -11 10 -5 0
-7 -4 -4 -10z"/>
<path d="M2369 7738 c-11 -43 13 -98 43 -98 7 0 2 10 -11 21 -15 15 -21 29
-18 45 2 14 0 27 -4 30 -5 3 -9 4 -10 2z"/>
<path d="M2327 7723 c-6 -10 19 -34 26 -26 8 7 -3 33 -13 33 -5 0 -11 -3 -13
-7z"/>
<path d="M2304 7693 c6 -34 -12 -51 -33 -30 -8 8 -11 7 -11 -5 0 -9 -7 -19
-16 -22 -10 -4 -14 -15 -12 -33 2 -23 -1 -27 -16 -25 -11 2 -15 -1 -11 -8 4
-6 4 -23 0 -37 -5 -20 -9 -23 -18 -14 -9 9 -8 14 3 21 8 5 11 12 6 17 -4 4
-12 1 -17 -8 -4 -9 -22 -31 -39 -49 -16 -18 -30 -37 -30 -44 0 -6 5 -4 10 4 8
13 10 12 10 -2 0 -10 4 -18 9 -18 4 0 6 11 3 25 -2 15 0 25 7 25 7 0 10 -15 8
-40 -4 -46 7 -41 16 7 4 20 2 33 -6 36 -7 2 -8 8 -4 13 5 5 14 1 21 -9 14 -18
32 -24 21 -7 -3 5 1 20 10 32 17 23 17 22 11 -14 -5 -25 -3 -38 4 -38 6 0 9 4
6 9 -3 4 1 17 10 27 14 18 15 18 9 -6 -6 -23 -5 -23 8 -7 15 18 43 24 32 7 -3
-5 -1 -10 5 -10 24 0 2 24 -28 32 -40 11 -46 48 -8 48 16 0 27 7 31 20 9 27
17 25 55 -10 48 -45 48 -29 1 18 -33 33 -38 42 -27 51 11 9 15 9 18 -1 3 -8 7
-6 11 6 4 10 3 15 -3 11 -5 -3 -19 9 -31 27 l-21 33 6 -32z m-14 -72 c0 -5
-11 -8 -25 -8 -14 0 -25 3 -25 8 0 5 11 9 25 9 14 0 25 -4 25 -9z m-10 -31 c0
-5 -4 -10 -9 -10 -6 0 -13 5 -16 10 -3 6 1 10 9 10 9 0 16 -4 16 -10z"/>
<path d="M2435 7710 c3 -5 8 -10 11 -10 2 0 4 5 4 10 0 6 -5 10 -11 10 -5 0
-7 -4 -4 -10z"/>
<path d="M2485 7710 c-3 -5 -1 -10 4 -10 6 0 11 5 11 10 0 6 -2 10 -4 10 -3 0
-8 -4 -11 -10z"/>
<path d="M2460 7679 c0 -5 5 -7 10 -4 6 3 10 8 10 11 0 2 -4 4 -10 4 -5 0 -10
-5 -10 -11z"/>
<path d="M2441 7654 c0 -11 3 -14 6 -6 3 7 2 16 -1 19 -3 4 -6 -2 -5 -13z"/>
<path d="M2360 7629 c0 -5 5 -7 10 -4 6 3 10 8 10 11 0 2 -4 4 -10 4 -5 0 -10
-5 -10 -11z"/>
<path d="M2380 7599 c0 -5 5 -7 10 -4 6 3 10 8 10 11 0 2 -4 4 -10 4 -5 0 -10
-5 -10 -11z"/>
<path d="M2437 7599 c7 -7 15 -10 18 -7 3 3 -2 9 -12 12 -14 6 -15 5 -6 -5z"/>
<path d="M2303 7572 c0 -10 8 -18 18 -18 13 0 14 4 5 18 -6 10 -14 18 -18 18
-4 0 -6 -8 -5 -18z"/>
<path d="M2255 7550 c-3 -5 -1 -10 4 -10 6 0 11 5 11 10 0 6 -2 10 -4 10 -3 0
-8 -4 -11 -10z"/>
<path d="M2375 7519 c-4 -6 -5 -12 -2 -15 2 -3 7 2 10 11 7 17 1 20 -8 4z"/>
<path d="M2320 7494 c0 -8 5 -12 10 -9 6 4 8 11 5 16 -9 14 -15 11 -15 -7z"/>
<path d="M3557 7480 c-12 -12 -16 -25 -12 -43 6 -22 11 -25 43 -21 20 3 56 11
80 19 23 8 49 15 57 15 25 0 17 17 -12 28 -16 6 -53 12 -83 15 -43 4 -59 1
-73 -13z"/>
<path d="M3908 7483 c7 -3 16 -2 19 1 4 3 -2 6 -13 5 -11 0 -14 -3 -6 -6z"/>
<path d="M3760 7470 c0 -5 5 -10 11 -10 5 0 7 5 4 10 -3 6 -8 10 -11 10 -2 0
-4 -4 -4 -10z"/>
<path d="M3868 7473 c7 -3 16 -2 19 1 4 3 -2 6 -13 5 -11 0 -14 -3 -6 -6z"/>
<path d="M2246 7463 c-3 -3 -6 -15 -6 -25 0 -11 -4 -17 -10 -13 -5 3 -7 12 -3
20 3 8 0 15 -7 15 -6 0 -8 -4 -5 -10 3 -5 -1 -10 -10 -10 -10 0 -13 5 -9 12 4
7 3 8 -4 4 -6 -4 -9 -13 -6 -21 4 -8 10 -12 15 -9 13 8 42 -24 33 -37 -4 -8
-3 -9 5 -5 6 4 11 13 10 19 -1 7 -1 23 0 37 1 20 3 22 11 10 6 -9 10 -10 10
-3 0 15 -15 25 -24 16z"/>
<path d="M2305 7460 c-3 -6 1 -7 9 -4 18 7 21 14 7 14 -6 0 -13 -4 -16 -10z"/>
<path d="M2338 7449 c-2 -6 -16 -12 -31 -12 -25 -2 -40 -17 -17 -17 6 0 8 -12
5 -27 -5 -26 -5 -26 4 -5 13 27 25 29 16 2 -4 -11 -2 -20 4 -20 6 0 11 6 11
14 0 8 4 16 9 18 12 4 22 58 11 58 -5 0 -10 -5 -12 -11z"/>
<path d="M2353 7403 c-9 -21 -20 -40 -23 -43 -4 -3 -9 -13 -13 -22 -5 -16 0
-18 38 -18 38 0 45 3 45 20 0 13 7 20 20 20 15 0 20 7 20 25 0 18 -5 25 -19
25 -10 0 -21 7 -25 15 -9 25 -24 17 -43 -22z"/>
<path d="M2260 7405 c0 -8 4 -15 10 -15 5 0 7 7 4 15 -4 8 -8 15 -10 15 -2 0
-4 -7 -4 -15z"/>
<path d="M2105 7400 c3 -5 8 -10 11 -10 2 0 4 5 4 10 0 6 -5 10 -11 10 -5 0
-7 -4 -4 -10z"/>
<path d="M2047 7363 c10 -28 43 -45 43 -23 0 6 -7 10 -15 10 -8 0 -15 7 -15
15 0 8 -4 15 -10 15 -5 0 -6 -8 -3 -17z"/>
<path d="M2085 7370 c-3 -5 -1 -10 4 -10 6 0 11 5 11 10 0 6 -2 10 -4 10 -3 0
-8 -4 -11 -10z"/>
<path d="M2211 7361 c-10 -7 -7 -9 12 -8 15 1 27 5 27 10 0 10 -22 9 -39 -2z"/>
<path d="M2143 7345 c0 -8 4 -12 9 -9 5 3 6 10 3 15 -9 13 -12 11 -12 -6z"/>
<path d="M2115 7339 c-4 -6 -5 -12 -2 -15 2 -3 7 2 10 11 7 17 1 20 -8 4z"/>
<path d="M2265 7340 c-3 -5 3 -10 14 -10 12 0 21 5 21 10 0 6 -6 10 -14 10 -8
0 -18 -4 -21 -10z"/>
<path d="M1987 7286 c-4 -10 -1 -13 8 -9 8 3 12 9 9 14 -7 12 -11 11 -17 -5z"/>
<path d="M2136 7277 c3 -10 9 -15 12 -12 3 3 0 11 -7 18 -10 9 -11 8 -5 -6z"/>
<path d="M2081 7264 c0 -11 3 -14 6 -6 3 7 2 16 -1 19 -3 4 -6 -2 -5 -13z"/>
<path d="M1965 7250 c4 -6 11 -8 16 -5 14 9 11 15 -7 15 -8 0 -12 -5 -9 -10z"/>
<path d="M2030 7250 c0 -5 5 -10 11 -10 5 0 7 5 4 10 -3 6 -8 10 -11 10 -2 0
-4 -4 -4 -10z"/>
<path d="M2919 7243 c-12 -14 -12 -16 1 -8 8 5 28 8 45 7 16 -1 37 2 45 8 11
7 3 10 -31 10 -32 0 -51 -5 -60 -17z"/>
<path d="M2060 7240 c0 -5 5 -10 11 -10 5 0 7 5 4 10 -3 6 -8 10 -11 10 -2 0
-4 -4 -4 -10z"/>
<path d="M1950 7230 c0 -5 5 -10 11 -10 5 0 7 5 4 10 -3 6 -8 10 -11 10 -2 0
-4 -4 -4 -10z"/>
<path d="M1990 7219 c0 -5 5 -7 10 -4 6 3 10 8 10 11 0 2 -4 4 -10 4 -5 0 -10
-5 -10 -11z"/>
<path d="M2029 7213 c-13 -16 -12 -17 4 -4 9 7 17 15 17 17 0 8 -8 3 -21 -13z"/>
<path d="M1920 7191 c0 -6 5 -13 10 -16 6 -3 10 1 10 9 0 9 -4 16 -10 16 -5 0
-10 -4 -10 -9z"/>
<path d="M2005 7180 c3 -5 8 -10 11 -10 2 0 4 5 4 10 0 6 -5 10 -11 10 -5 0
-7 -4 -4 -10z"/>
<path d="M2065 7180 c-3 -5 -1 -10 4 -10 6 0 11 5 11 10 0 6 -2 10 -4 10 -3 0
-8 -4 -11 -10z"/>
<path d="M2036 7164 c-8 -20 -8 -24 2 -24 4 0 8 9 9 20 2 24 -3 26 -11 4z"/>
<path d="M1897 7151 c-3 -13 0 -18 7 -15 7 3 13 11 13 19 0 22 -14 18 -20 -4z"/>
<path d="M2096 7147 c3 -10 9 -15 12 -12 3 3 0 11 -7 18 -10 9 -11 8 -5 -6z"/>
<path d="M2003 7143 c4 -3 2 -12 -4 -20 -9 -9 -8 -13 0 -13 6 0 11 2 11 4 0 2
3 11 6 20 4 10 1 16 -7 16 -7 0 -9 -3 -6 -7z"/>
<path d="M1960 7130 c-8 -5 -10 -10 -5 -10 6 0 17 5 25 10 8 5 11 10 5 10 -5
0 -17 -5 -25 -10z"/>
<path d="M1915 7120 c-3 -5 -1 -10 4 -10 6 0 11 5 11 10 0 6 -2 10 -4 10 -3 0
-8 -4 -11 -10z"/>
<path d="M2036 7113 c-6 -14 -5 -15 5 -6 7 7 10 15 7 18 -3 3 -9 -2 -12 -12z"/>
<path d="M1855 7089 c-11 -16 1 -22 23 -10 14 7 22 7 25 1 3 -6 4 -5 3 1 -3
16 -43 22 -51 8z"/>
<path d="M1950 7096 c0 -2 7 -7 16 -10 8 -3 12 -2 9 4 -6 10 -25 14 -25 6z"/>
<path d="M2020 7060 c0 -5 5 -10 11 -10 5 0 7 5 4 10 -3 6 -8 10 -11 10 -2 0
-4 -4 -4 -10z"/>
<path d="M1826 7023 c-6 -14 -5 -15 5 -6 7 7 10 15 7 18 -3 3 -9 -2 -12 -12z"/>
<path d="M1905 6950 c-7 -12 12 -12 40 0 18 8 17 9 -7 9 -15 1 -30 -3 -33 -9z"/>
<path d="M1775 6935 c-3 -8 -7 -22 -9 -29 -3 -9 0 -13 7 -10 7 2 14 16 15 29
2 28 -6 34 -13 10z"/>
<path d="M1860 6930 c-23 -7 -23 -8 -3 -9 12 -1 25 4 28 9 3 6 5 10 3 9 -2 -1
-14 -5 -28 -9z"/>
<path d="M6135 5321 c-10 -17 9 -20 30 -5 18 14 18 14 -2 14 -12 0 -24 -4 -28
-9z"/>
<path d="M1620 8929 c0 -6 24 -39 53 -72 29 -34 93 -126 143 -205 49 -78 124
-190 166 -248 42 -58 79 -111 81 -117 2 -7 6 -10 8 -7 36 45 68 89 77 106 6
12 51 75 99 140 49 66 123 172 166 236 42 64 91 128 107 142 17 13 30 26 30
29 0 2 -209 4 -465 6 -342 1 -465 -1 -465 -10z m668 -128 c10 -6 3 -25 -34
-82 -66 -105 -167 -238 -180 -239 -6 0 -20 10 -31 23 -31 35 -148 208 -171
254 -12 22 -27 43 -34 46 -7 3 88 6 212 6 124 0 231 -3 238 -8z"/>
<path d="M2285 8539 c-4 -6 -5 -12 -2 -15 2 -3 7 2 10 11 7 17 1 20 -8 4z"/>
<path d="M2114 8316 c-9 -15 -14 -29 -10 -33 3 -3 6 -1 6 5 0 6 7 18 16 27 9
9 14 18 11 21 -3 3 -13 -6 -23 -20z"/>
<path d="M1865 8191 c-3 -5 -1 -12 5 -16 5 -3 10 1 10 9 0 18 -6 21 -15 7z"/>
<path d="M1895 8150 c3 -5 8 -10 11 -10 2 0 4 5 4 10 0 6 -5 10 -11 10 -5 0
-7 -4 -4 -10z"/>
<path d="M1950 8074 c0 -13 18 -39 24 -34 2 3 -2 14 -10 24 -8 11 -14 16 -14
10z"/>
<path d="M2055 7930 c3 -5 1 -10 -6 -10 -7 0 -10 -2 -7 -5 7 -8 38 5 38 16 0
5 -7 9 -16 9 -8 0 -12 -4 -9 -10z"/>
<path d="M1090 7365 c-10 -12 -10 -15 3 -15 19 0 31 16 18 24 -5 3 -14 -1 -21
-9z"/>
<path d="M1218 7333 c7 -3 16 -2 19 1 4 3 -2 6 -13 5 -11 0 -14 -3 -6 -6z"/>
<path d="M6915 840 c-3 -5 1 -10 10 -10 9 0 13 5 10 10 -3 6 -8 10 -10 10 -2
0 -7 -4 -10 -10z"/>
</g>
</svg>
